<mxfile host="app.diagrams.net" modified="2021-11-11T09:09:44.980Z" agent="5.0 (Windows NT 10.0; Win64; x64) AppleWebKit/537.36 (KHTML, like Gecko) Chrome/95.0.4638.69 Safari/537.36" etag="5RFvHFDsh3aGD7ikWOKH" version="15.6.8" type="github">
  <diagram id="2jkgbCqV82JcooATUMWH" name="第 1 页">
    <mxGraphModel dx="868" dy="450" grid="1" gridSize="10" guides="1" tooltips="1" connect="1" arrows="1" fold="1" page="1" pageScale="1" pageWidth="3300" pageHeight="4681" math="0" shadow="0">
      <root>
        <mxCell id="0" />
        <mxCell id="1" parent="0" />
        <mxCell id="iWrDtdt-Z3ffTOrgZMP3-21" value="" style="rounded=0;whiteSpace=wrap;html=1;" vertex="1" parent="1">
          <mxGeometry x="600" y="250" width="200" height="189" as="geometry" />
        </mxCell>
        <mxCell id="iWrDtdt-Z3ffTOrgZMP3-19" value="" style="rounded=0;whiteSpace=wrap;html=1;" vertex="1" parent="1">
          <mxGeometry x="600" y="35.5" width="200" height="189" as="geometry" />
        </mxCell>
        <mxCell id="iWrDtdt-Z3ffTOrgZMP3-18" value="" style="whiteSpace=wrap;html=1;aspect=fixed;" vertex="1" parent="1">
          <mxGeometry x="360" y="70" width="200" height="200" as="geometry" />
        </mxCell>
        <mxCell id="iWrDtdt-Z3ffTOrgZMP3-2" value="数据预处理" style="rounded=1;whiteSpace=wrap;html=1;fillColor=#e1d5e7;strokeColor=#9673a6;" vertex="1" parent="1">
          <mxGeometry x="400" y="190" width="120" height="60" as="geometry" />
        </mxCell>
        <mxCell id="iWrDtdt-Z3ffTOrgZMP3-3" value="DTC 演变模型" style="whiteSpace=wrap;html=1;rounded=1;fillColor=#dae8fc;strokeColor=#6c8ebf;" vertex="1" parent="1">
          <mxGeometry x="640" y="50" width="120" height="60" as="geometry" />
        </mxCell>
        <mxCell id="iWrDtdt-Z3ffTOrgZMP3-7" value="数据融合" style="whiteSpace=wrap;html=1;rounded=1;fillColor=#e1d5e7;strokeColor=#9673a6;" vertex="1" parent="1">
          <mxGeometry x="400" y="100" width="120" height="60" as="geometry" />
        </mxCell>
        <mxCell id="iWrDtdt-Z3ffTOrgZMP3-9" value="维修预测模型" style="whiteSpace=wrap;html=1;rounded=1;fillColor=#dae8fc;strokeColor=#6c8ebf;" vertex="1" parent="1">
          <mxGeometry x="640" y="140" width="120" height="60" as="geometry" />
        </mxCell>
        <mxCell id="iWrDtdt-Z3ffTOrgZMP3-11" value="故障预测模型" style="whiteSpace=wrap;html=1;rounded=1;fillColor=#dae8fc;strokeColor=#6c8ebf;" vertex="1" parent="1">
          <mxGeometry x="640" y="360" width="120" height="60" as="geometry" />
        </mxCell>
        <mxCell id="iWrDtdt-Z3ffTOrgZMP3-20" value="特征挖掘" style="whiteSpace=wrap;html=1;rounded=1;fillColor=#dae8fc;strokeColor=#6c8ebf;" vertex="1" parent="1">
          <mxGeometry x="640" y="270" width="120" height="60" as="geometry" />
        </mxCell>
        <mxCell id="iWrDtdt-Z3ffTOrgZMP3-23" value="DTC演变图谱" style="whiteSpace=wrap;html=1;rounded=1;fillColor=#dae8fc;strokeColor=#6c8ebf;" vertex="1" parent="1">
          <mxGeometry x="880" y="60" width="120" height="60" as="geometry" />
        </mxCell>
        <mxCell id="iWrDtdt-Z3ffTOrgZMP3-24" value="预测更换零部件" style="whiteSpace=wrap;html=1;rounded=1;fillColor=#dae8fc;strokeColor=#6c8ebf;" vertex="1" parent="1">
          <mxGeometry x="880" y="310" width="120" height="60" as="geometry" />
        </mxCell>
        <mxCell id="iWrDtdt-Z3ffTOrgZMP3-25" value="故障码&amp;amp;故障码组合" style="whiteSpace=wrap;html=1;rounded=1;fillColor=#dae8fc;strokeColor=#6c8ebf;" vertex="1" parent="1">
          <mxGeometry x="880" y="150" width="120" height="60" as="geometry" />
        </mxCell>
        <mxCell id="iWrDtdt-Z3ffTOrgZMP3-26" value="" style="shape=cylinder3;whiteSpace=wrap;html=1;boundedLbl=1;backgroundOutline=1;size=15;fillColor=#f8cecc;strokeColor=#b85450;" vertex="1" parent="1">
          <mxGeometry x="170" y="130" width="80" height="80" as="geometry" />
        </mxCell>
        <mxCell id="iWrDtdt-Z3ffTOrgZMP3-90" style="edgeStyle=orthogonalEdgeStyle;curved=1;rounded=0;orthogonalLoop=1;jettySize=auto;html=1;entryX=0.5;entryY=0;entryDx=0;entryDy=0;fontSize=17;fontColor=#1A1A1A;strokeColor=#D5E8D4;" edge="1" parent="1" source="iWrDtdt-Z3ffTOrgZMP3-27" target="iWrDtdt-Z3ffTOrgZMP3-28">
          <mxGeometry relative="1" as="geometry" />
        </mxCell>
        <mxCell id="iWrDtdt-Z3ffTOrgZMP3-91" style="edgeStyle=orthogonalEdgeStyle;curved=1;rounded=0;orthogonalLoop=1;jettySize=auto;html=1;exitX=0.5;exitY=1;exitDx=0;exitDy=0;exitPerimeter=0;fontSize=17;fontColor=#1A1A1A;strokeColor=#D5E8D4;" edge="1" parent="1" source="iWrDtdt-Z3ffTOrgZMP3-27" target="iWrDtdt-Z3ffTOrgZMP3-29">
          <mxGeometry relative="1" as="geometry" />
        </mxCell>
        <mxCell id="iWrDtdt-Z3ffTOrgZMP3-92" style="edgeStyle=orthogonalEdgeStyle;curved=1;rounded=0;orthogonalLoop=1;jettySize=auto;html=1;exitX=1;exitY=0.5;exitDx=0;exitDy=0;exitPerimeter=0;entryX=0.5;entryY=0;entryDx=0;entryDy=0;fontSize=17;fontColor=#1A1A1A;strokeColor=#D5E8D4;" edge="1" parent="1" source="iWrDtdt-Z3ffTOrgZMP3-27" target="iWrDtdt-Z3ffTOrgZMP3-30">
          <mxGeometry relative="1" as="geometry" />
        </mxCell>
        <mxCell id="iWrDtdt-Z3ffTOrgZMP3-27" value="数据" style="shape=cylinder3;whiteSpace=wrap;html=1;boundedLbl=1;backgroundOutline=1;size=15;fillColor=#d5e8d4;strokeColor=#82b366;fontColor=#FFFFFF;fontStyle=1;fontSize=17;" vertex="1" parent="1">
          <mxGeometry x="420" y="529" width="140" height="105" as="geometry" />
        </mxCell>
        <mxCell id="iWrDtdt-Z3ffTOrgZMP3-112" value="" style="edgeStyle=orthogonalEdgeStyle;curved=1;rounded=0;orthogonalLoop=1;jettySize=auto;html=1;fontSize=14;fontColor=#1A1A1A;strokeColor=#D5E8D4;" edge="1" parent="1" source="iWrDtdt-Z3ffTOrgZMP3-28" target="iWrDtdt-Z3ffTOrgZMP3-82">
          <mxGeometry relative="1" as="geometry" />
        </mxCell>
        <mxCell id="iWrDtdt-Z3ffTOrgZMP3-28" value="车辆静态数据" style="rounded=1;whiteSpace=wrap;html=1;fontSize=14;fillColor=#d5e8d4;strokeColor=#82b366;fontStyle=1" vertex="1" parent="1">
          <mxGeometry x="190" y="709" width="110" height="60" as="geometry" />
        </mxCell>
        <mxCell id="iWrDtdt-Z3ffTOrgZMP3-29" value="车辆故障码发生数据" style="rounded=1;whiteSpace=wrap;html=1;fontSize=14;fillColor=#d5e8d4;strokeColor=#82b366;fontStyle=1" vertex="1" parent="1">
          <mxGeometry x="435" y="709" width="110" height="60" as="geometry" />
        </mxCell>
        <mxCell id="iWrDtdt-Z3ffTOrgZMP3-30" value="车辆维保&amp;amp;维修数据" style="rounded=1;whiteSpace=wrap;html=1;fontSize=14;fillColor=#d5e8d4;strokeColor=#82b366;fontStyle=1" vertex="1" parent="1">
          <mxGeometry x="690" y="709" width="110" height="60" as="geometry" />
        </mxCell>
        <mxCell id="iWrDtdt-Z3ffTOrgZMP3-75" value="数据字段" style="swimlane;fontSize=14;strokeColor=#82b366;fillColor=#d5e8d4;fontColor=#1A1A1A;" vertex="1" parent="1">
          <mxGeometry x="390" y="829" width="200" height="220" as="geometry">
            <mxRectangle x="430" y="580" width="150" height="23" as="alternateBounds" />
          </mxGeometry>
        </mxCell>
        <mxCell id="iWrDtdt-Z3ffTOrgZMP3-78" value="* 故障名称&lt;br&gt;&lt;br&gt;* 故障描述&lt;br&gt;&lt;br&gt;* 故障码发生时间&lt;br&gt;&lt;br&gt;* 故障码（SPN、FMI）&lt;br&gt;&lt;br&gt;* 累计里程&lt;br&gt;&lt;br&gt;* 经、纬度" style="text;html=1;strokeColor=none;fillColor=none;align=left;verticalAlign=top;whiteSpace=wrap;rounded=0;fontSize=14;fontColor=#4D4D4D;spacingTop=-5;horizontal=1;" vertex="1" parent="iWrDtdt-Z3ffTOrgZMP3-75">
          <mxGeometry x="10" y="30" width="180" height="190" as="geometry" />
        </mxCell>
        <mxCell id="iWrDtdt-Z3ffTOrgZMP3-79" value="数据字段" style="swimlane;fontSize=14;strokeColor=#82b366;fillColor=#d5e8d4;fontColor=#1A1A1A;" vertex="1" parent="1">
          <mxGeometry x="645" y="829" width="200" height="180" as="geometry">
            <mxRectangle x="430" y="580" width="150" height="23" as="alternateBounds" />
          </mxGeometry>
        </mxCell>
        <mxCell id="iWrDtdt-Z3ffTOrgZMP3-80" value="* 维修/保养时间&lt;br&gt;&lt;br&gt;* 维修/保养内容&lt;br&gt;&lt;br&gt;* 故障描述、现象&lt;br&gt;&lt;br&gt;* 故障原因&lt;br&gt;&lt;br&gt;* 更换零部件名称" style="text;html=1;strokeColor=none;fillColor=none;align=left;verticalAlign=top;whiteSpace=wrap;rounded=0;fontSize=14;fontColor=#4D4D4D;spacingTop=-5;horizontal=1;" vertex="1" parent="iWrDtdt-Z3ffTOrgZMP3-79">
          <mxGeometry x="10" y="30" width="180" height="140" as="geometry" />
        </mxCell>
        <mxCell id="iWrDtdt-Z3ffTOrgZMP3-81" value="数据字段" style="swimlane;fontSize=14;strokeColor=#82b366;fillColor=#d5e8d4;fontColor=#1A1A1A;" vertex="1" parent="1">
          <mxGeometry x="145" y="829" width="200" height="150" as="geometry">
            <mxRectangle x="430" y="580" width="150" height="23" as="alternateBounds" />
          </mxGeometry>
        </mxCell>
        <mxCell id="iWrDtdt-Z3ffTOrgZMP3-82" value="* 底盘号&lt;br&gt;&lt;br&gt;* 车型&lt;br&gt;&lt;br&gt;* 涉及故障主要零部件相关的信息" style="text;html=1;strokeColor=none;fillColor=none;align=left;verticalAlign=top;whiteSpace=wrap;rounded=0;fontSize=14;fontColor=#4D4D4D;spacingTop=-5;horizontal=1;" vertex="1" parent="iWrDtdt-Z3ffTOrgZMP3-81">
          <mxGeometry x="10" y="30" width="180" height="120" as="geometry" />
        </mxCell>
        <mxCell id="iWrDtdt-Z3ffTOrgZMP3-93" value="" style="shape=flexArrow;endArrow=classic;html=1;rounded=0;fontSize=17;fontColor=#1A1A1A;strokeColor=#82b366;curved=1;fillColor=#d5e8d4;" edge="1" parent="1">
          <mxGeometry width="50" height="50" relative="1" as="geometry">
            <mxPoint x="244.5" y="779" as="sourcePoint" />
            <mxPoint x="244.5" y="819" as="targetPoint" />
          </mxGeometry>
        </mxCell>
        <mxCell id="iWrDtdt-Z3ffTOrgZMP3-94" value="" style="shape=flexArrow;endArrow=classic;html=1;rounded=0;fontSize=17;fontColor=#1A1A1A;strokeColor=#82b366;curved=1;fillColor=#d5e8d4;" edge="1" parent="1">
          <mxGeometry width="50" height="50" relative="1" as="geometry">
            <mxPoint x="489.5" y="779" as="sourcePoint" />
            <mxPoint x="489.5" y="819" as="targetPoint" />
          </mxGeometry>
        </mxCell>
        <mxCell id="iWrDtdt-Z3ffTOrgZMP3-95" value="" style="shape=flexArrow;endArrow=classic;html=1;rounded=0;fontSize=17;fontColor=#1A1A1A;strokeColor=#82b366;curved=1;fillColor=#d5e8d4;" edge="1" parent="1">
          <mxGeometry width="50" height="50" relative="1" as="geometry">
            <mxPoint x="744.5" y="779" as="sourcePoint" />
            <mxPoint x="744.5" y="819" as="targetPoint" />
          </mxGeometry>
        </mxCell>
        <mxCell id="iWrDtdt-Z3ffTOrgZMP3-96" value="" style="shape=cross;whiteSpace=wrap;html=1;fontSize=17;strokeColor=#9673a6;fillColor=#e1d5e7;align=left;verticalAlign=top;" vertex="1" parent="1">
          <mxGeometry x="350" y="723.25" width="30" height="31.5" as="geometry" />
        </mxCell>
        <mxCell id="iWrDtdt-Z3ffTOrgZMP3-98" value="" style="shape=cross;whiteSpace=wrap;html=1;fontSize=17;strokeColor=#9673a6;fillColor=#e1d5e7;align=left;verticalAlign=top;" vertex="1" parent="1">
          <mxGeometry x="610" y="723.25" width="30" height="31.5" as="geometry" />
        </mxCell>
        <mxCell id="iWrDtdt-Z3ffTOrgZMP3-101" value="" style="shape=flexArrow;endArrow=classic;html=1;rounded=0;fontSize=17;fontColor=#1A1A1A;strokeColor=#9673a6;curved=1;fillColor=#e1d5e7;" edge="1" parent="1">
          <mxGeometry width="50" height="50" relative="1" as="geometry">
            <mxPoint x="830" y="739" as="sourcePoint" />
            <mxPoint x="870" y="738.5" as="targetPoint" />
          </mxGeometry>
        </mxCell>
        <mxCell id="iWrDtdt-Z3ffTOrgZMP3-102" value="数据融合" style="rounded=0;whiteSpace=wrap;html=1;fontSize=15;strokeColor=#9673a6;fillColor=#e1d5e7;align=center;verticalAlign=middle;fontStyle=1" vertex="1" parent="1">
          <mxGeometry x="890" y="710" width="120" height="60" as="geometry" />
        </mxCell>
        <mxCell id="iWrDtdt-Z3ffTOrgZMP3-123" value="" style="group" vertex="1" connectable="0" parent="1">
          <mxGeometry x="1201" y="50" width="170" height="280" as="geometry" />
        </mxCell>
        <mxCell id="iWrDtdt-Z3ffTOrgZMP3-103" value="故障码过滤" style="rounded=1;whiteSpace=wrap;html=1;fontSize=14;strokeColor=#82b366;fillColor=#d5e8d4;align=center;verticalAlign=middle;fontStyle=1" vertex="1" parent="iWrDtdt-Z3ffTOrgZMP3-123">
          <mxGeometry x="50" width="120" height="60" as="geometry" />
        </mxCell>
        <mxCell id="iWrDtdt-Z3ffTOrgZMP3-105" value="根据业务经验" style="rounded=0;whiteSpace=wrap;html=1;fontSize=14;strokeColor=#9673a6;fillColor=#e1d5e7;align=center;verticalAlign=middle;shadow=0;sketch=0;glass=0;" vertex="1" parent="iWrDtdt-Z3ffTOrgZMP3-123">
          <mxGeometry x="50" y="150" width="120" height="60" as="geometry" />
        </mxCell>
        <mxCell id="iWrDtdt-Z3ffTOrgZMP3-121" style="edgeStyle=orthogonalEdgeStyle;curved=1;rounded=0;orthogonalLoop=1;jettySize=auto;html=1;exitX=0;exitY=0.5;exitDx=0;exitDy=0;entryX=0;entryY=0.5;entryDx=0;entryDy=0;fontSize=14;fontColor=#1A1A1A;strokeColor=#D5E8D4;" edge="1" parent="iWrDtdt-Z3ffTOrgZMP3-123" source="iWrDtdt-Z3ffTOrgZMP3-103" target="iWrDtdt-Z3ffTOrgZMP3-105">
          <mxGeometry relative="1" as="geometry">
            <Array as="points">
              <mxPoint x="20" y="30" />
              <mxPoint x="20" y="180" />
            </Array>
          </mxGeometry>
        </mxCell>
        <mxCell id="iWrDtdt-Z3ffTOrgZMP3-107" value="根据统计数据" style="rounded=0;whiteSpace=wrap;html=1;fontSize=14;strokeColor=#9673a6;fillColor=#e1d5e7;align=center;verticalAlign=middle;shadow=0;sketch=0;glass=0;" vertex="1" parent="iWrDtdt-Z3ffTOrgZMP3-123">
          <mxGeometry x="50" y="80" width="120" height="60" as="geometry" />
        </mxCell>
        <mxCell id="iWrDtdt-Z3ffTOrgZMP3-120" style="edgeStyle=orthogonalEdgeStyle;curved=1;rounded=0;orthogonalLoop=1;jettySize=auto;html=1;exitX=0;exitY=0.5;exitDx=0;exitDy=0;entryX=0;entryY=0.5;entryDx=0;entryDy=0;fontSize=14;fontColor=#1A1A1A;strokeColor=#D5E8D4;" edge="1" parent="iWrDtdt-Z3ffTOrgZMP3-123" source="iWrDtdt-Z3ffTOrgZMP3-103" target="iWrDtdt-Z3ffTOrgZMP3-107">
          <mxGeometry relative="1" as="geometry" />
        </mxCell>
        <mxCell id="iWrDtdt-Z3ffTOrgZMP3-108" value="使用TF-IDF算法" style="rounded=0;whiteSpace=wrap;html=1;fontSize=14;strokeColor=#9673a6;fillColor=#e1d5e7;align=center;verticalAlign=middle;shadow=0;sketch=0;glass=0;" vertex="1" parent="iWrDtdt-Z3ffTOrgZMP3-123">
          <mxGeometry x="50" y="220" width="120" height="60" as="geometry" />
        </mxCell>
        <mxCell id="iWrDtdt-Z3ffTOrgZMP3-122" style="edgeStyle=orthogonalEdgeStyle;curved=1;rounded=0;orthogonalLoop=1;jettySize=auto;html=1;exitX=0;exitY=0.5;exitDx=0;exitDy=0;entryX=0;entryY=0.5;entryDx=0;entryDy=0;fontSize=14;fontColor=#1A1A1A;strokeColor=#D5E8D4;" edge="1" parent="iWrDtdt-Z3ffTOrgZMP3-123" source="iWrDtdt-Z3ffTOrgZMP3-103" target="iWrDtdt-Z3ffTOrgZMP3-108">
          <mxGeometry relative="1" as="geometry">
            <Array as="points">
              <mxPoint y="30" />
              <mxPoint y="250" />
            </Array>
          </mxGeometry>
        </mxCell>
        <mxCell id="iWrDtdt-Z3ffTOrgZMP3-124" value="" style="group" vertex="1" connectable="0" parent="1">
          <mxGeometry x="1410" y="50" width="160" height="210" as="geometry" />
        </mxCell>
        <mxCell id="iWrDtdt-Z3ffTOrgZMP3-113" value="数据结构重塑" style="rounded=1;whiteSpace=wrap;html=1;fontSize=14;strokeColor=#82b366;fillColor=#d5e8d4;align=center;verticalAlign=middle;fontStyle=1" vertex="1" parent="iWrDtdt-Z3ffTOrgZMP3-124">
          <mxGeometry x="40" width="120" height="60" as="geometry" />
        </mxCell>
        <mxCell id="iWrDtdt-Z3ffTOrgZMP3-114" value="故障码去重" style="rounded=0;whiteSpace=wrap;html=1;fontSize=14;strokeColor=#9673a6;fillColor=#e1d5e7;align=center;verticalAlign=middle;shadow=0;sketch=0;glass=0;" vertex="1" parent="iWrDtdt-Z3ffTOrgZMP3-124">
          <mxGeometry x="40" y="80" width="120" height="60" as="geometry" />
        </mxCell>
        <mxCell id="iWrDtdt-Z3ffTOrgZMP3-118" style="edgeStyle=orthogonalEdgeStyle;curved=1;rounded=0;orthogonalLoop=1;jettySize=auto;html=1;exitX=0;exitY=0.5;exitDx=0;exitDy=0;entryX=0;entryY=0.5;entryDx=0;entryDy=0;fontSize=14;fontColor=#1A1A1A;strokeColor=#D5E8D4;" edge="1" parent="iWrDtdt-Z3ffTOrgZMP3-124" source="iWrDtdt-Z3ffTOrgZMP3-113" target="iWrDtdt-Z3ffTOrgZMP3-114">
          <mxGeometry relative="1" as="geometry">
            <Array as="points">
              <mxPoint x="10" y="30" />
              <mxPoint x="10" y="110" />
            </Array>
          </mxGeometry>
        </mxCell>
        <mxCell id="iWrDtdt-Z3ffTOrgZMP3-115" value="故障码整合&amp;amp;排序" style="rounded=0;whiteSpace=wrap;html=1;fontSize=14;strokeColor=#9673a6;fillColor=#e1d5e7;align=center;verticalAlign=middle;shadow=0;sketch=0;glass=0;" vertex="1" parent="iWrDtdt-Z3ffTOrgZMP3-124">
          <mxGeometry x="40" y="150" width="120" height="60" as="geometry" />
        </mxCell>
        <mxCell id="iWrDtdt-Z3ffTOrgZMP3-119" style="edgeStyle=orthogonalEdgeStyle;curved=1;rounded=0;orthogonalLoop=1;jettySize=auto;html=1;exitX=0;exitY=0.5;exitDx=0;exitDy=0;entryX=0;entryY=0.5;entryDx=0;entryDy=0;fontSize=14;fontColor=#1A1A1A;strokeColor=#D5E8D4;" edge="1" parent="iWrDtdt-Z3ffTOrgZMP3-124" source="iWrDtdt-Z3ffTOrgZMP3-113" target="iWrDtdt-Z3ffTOrgZMP3-115">
          <mxGeometry relative="1" as="geometry">
            <Array as="points">
              <mxPoint y="30" />
              <mxPoint y="180" />
            </Array>
          </mxGeometry>
        </mxCell>
        <mxCell id="iWrDtdt-Z3ffTOrgZMP3-125" value="" style="shape=flexArrow;endArrow=classic;html=1;rounded=0;fontSize=17;fontColor=#1A1A1A;strokeColor=#82b366;curved=1;fillColor=#d5e8d4;" edge="1" parent="1">
          <mxGeometry width="50" height="50" relative="1" as="geometry">
            <mxPoint x="1390" y="79.5" as="sourcePoint" />
            <mxPoint x="1430" y="79.5" as="targetPoint" />
          </mxGeometry>
        </mxCell>
        <mxCell id="iWrDtdt-Z3ffTOrgZMP3-127" value="" style="shape=flexArrow;endArrow=classic;html=1;rounded=0;fontSize=17;fontColor=#1A1A1A;strokeColor=#82b366;curved=1;fillColor=#d5e8d4;" edge="1" parent="1">
          <mxGeometry width="50" height="50" relative="1" as="geometry">
            <mxPoint x="1591" y="79.5" as="sourcePoint" />
            <mxPoint x="1631" y="79.5" as="targetPoint" />
          </mxGeometry>
        </mxCell>
        <mxCell id="iWrDtdt-Z3ffTOrgZMP3-129" value="" style="shape=image;verticalLabelPosition=bottom;labelBackgroundColor=#ffffff;verticalAlign=top;aspect=fixed;imageAspect=0;image=data:image/png,iVBORw0KGgoAAAANSUhEUgAAArgAAAFDCAYAAADRfX1oAAAgAElEQVR4AeydvY6txbWu96XA1SBxCbYEsQMInZA5ISEi2BmSnYDI2HKGdSIIcQYhzoAIHCHCPnr67Gedl+Gqb87ZvXp191xvSb1H1ajx+45R9VW3l73/66ajCBSBIlAEikARKAJFoAhcEQL/dUW5NJUiUASKQBEoAkWgCBSBInDTB26boAgUgSJQBIpAESgCReCqEOgD96rK2WSKQBEoAkWgCBSBIlAEXqsH7hdffHHz5ptv3nz//ffbyn/88ce3Msitfr755psXuu++++5SRj1sPcb45Zdfbt5+++0XeRKPscBnnUOecX/wwQe3uvCZz/Hbb7+9sA+WUz/tr/bA7csvv7yNQ/30Yxw7elS/GWvXpxHwXOzwTj6yq5rRX9SQ3pgD+bSxmqcuNlhjk16mX7DBGt3VUM4+X8nAS9/KwCOvxxozL2KBZ13ILQdYgIl89TM3cZjnD70crNHLe00dauA8bcMjho4iUARufndHgYf3F2cmR/LZy7PIOu9A9Djf89x9+umnv+Oppx98wMv7I224p7yU8+xZ9+5w71yqjd3dAH/Gwtp77Fw/l8hd9QN3NsgKXHg0lsPGsBkFHz6y+SFYfRy040fK9aukNBKxEbsN7wfcj6brXVw2a2KjLDb9yKWcmIGTQ57yUHjgiFzqq2NNkMtBPuSFTsfDIgDO1Go1Zs2sJXXzx/5b6a/OUsppH6ptaq9eyjqnT/W9otkzngF06bGVPLxXNcCKHwd5es/k3H3if+edd27rIybWyvOmPnw/nMzTD/ZYkyvy4s4c2f/5n//R5QtKHdhLPF9sdlIEXkME5nfJc8Q5yeHZ/Ne//nV77o7uLM41g7PI+ZzfQva8x5RVnjNNTO7nNxxbKX/r5Obm9kyz5w+6lw7zPvdu8O661M8l8lf/wD11GdsMggboFteGhFoMPxzI+3GwKSZdNZJ+HpIa64xnro+w8WBxOGxcD1l+5NzzI+qhNT8x1BcUnvZTX50Z51yfe4C0V3oaAephDZGmt6kVwxra+1mzDz/88PZSRJeBjLVOXXrGYX9qDz419tzZQ/qd9XfNvjLoElf60Q655EAWG+qmDvPMPfUeYo4/YuE/0QA38cSXsWS/i704G5M5YctasIdN1uTKfGLBGh3saRu/aY99fuCxl/XVf2kReF0RmOeU8+EZ4VxxdrjzvG/8Ty/Z85x5d3Ee4Tm8w1zn+VNXedfGwy/B+M77wFi0Z3zwmTO8n6FzaI9c5vD+gJ4z9LOSNa5VDCv5He+1eOAClhc5BZo/NMbR/pQ/t4A70F8V30b3AKz80qgzP9Y2GIfDxrWpXUOd+xGdB3JlG57Nnfqr+Mp7NQhQb2uIR84DlzTDixkZRtbss88+W/YPNdYe9JNPPnkhZ+296PGDvH3qWj/EwlDvdvG//0eeva5P+9oPjTrZj+yZk/3+3Xff3eaNnVcxxP2rr766feR6D+HbnMDBYb7oEb8ftZmX8siICXPss8Y2Q3/YE2/2tKsd68MedjImZUqLwOuIwDynnBXPiOeIc+s9yvnj3Hnn5Nl1zr524TnkQb0L8KFt9aH6Th5z9BjE4R6xONIWeTi8U1PWPaj3x+5uUF+fK0rMjIwhfVw6f60euDQFg+axgRKwLBBAZ3Ftpl1x085TmXuAdg1nnB6alFOXvMWFpmOIDXz3/Ih6aLStHfjKYke+PPY7Hg8B67G6dOQhw8iaqUef8MOZsZ92NT11lvTnBa0d9XYoERe677///u3P6ozvLk7zsMd3Pl42H6zMd/Xv69yDiitz4gXr3Cc2MbJWyIAfeTEHE3T8kLhG3rriR+zNVx32sINsRxEoAr//RZTz8d57792eMc6U55Hz5N3DefQMn8IPOc6og3PnvaZtz7oy6niGvT/ZZw89YmF+zo93RfrWV1Lvj93d4B3kvvFrg1j0Bc/43b8LvfoHLs3gv3mh+RgU3CYRNMEEZAcFgW8h/FC4r042kHuPTY1tNo1NmIdCWT6wfrzkkbs64IEeNpHjL3B+lMUGmhgip820Iz7yEkNqg42MUfnSh0EArK0hHqgBdWNQd/aQYU5t/LEf6BN+0OGcoZ81NWpk+GuudZ81hq9tdaTosrcb9iwyzFeDmLSPb/zB4y+o8O3nnf7K5n15iZV4YlMciTHXxIncrI/nLOOBR37UjTm+xJEcWWvPmuA3sRQveOyt/KTPzovA64IAZ8HzIfW+5Nx55jg38n/66afbM5lnT7w8p5xFfrCJnD/eD/qSqs/Z5ofhGSYOB/LuyzuXoofNObw3sE38u5G5IYM9dBzM0/68/5S7hL5WD1wAXP34AYBmM5wC0gLdtWFO2b/Pfh48DgfNwiC/bCp45uGBgObcBv73v//9Qt+PnAcuMUz77Nu02lFXH67Nl/XkuVf6MAhYx9X5kIcMwzpSc/XoIX6omxdTniUvc2x5CUK1bVbo+u9Q7UtlJjWetDNlXCvrGspfevGFH/N41f9EgbyNKeOAL47gzSBP4hR3sBYjqCPnyHg2mVMHc/WjiX941hW/nk1tIgOPPewYk/ulReB1RCDPV54Zz6XnBmw4v5xFzhD7eSd6B0A9X95rnlMoujnSp+daW/6y7lrq/YCtXQxTFp/o4W8ObRA3A7vEMgf5mBt7YqQcPtO+8d3nrrnqBy7A0FD8xpTNIbCzCDaLxV1Rm4OiYHslIy9lLeKroDQGMZAzf71mbuMwJ+4c5uEHDr3EyINDg8LnYWCjugffA6wPfaYvfRw1LfpHP0e66avzyxCgD6wZ9aUPGNbV82IN7ZujWtkfyHgeoJ5HLzH24XFWPYczevSQcxiX/mdfI6d9Y0fW/wiRfWyyZ5zIY8fLWl8PRcnB+MnbOOQlJQZzRm7GqC44IsdAhnxYW1NtYBtZKLrWFQxmDZCBxx52egYfqiNq9zkhkOcrz4xnMc+K5+7cv+CCA+czfzh/OfJO1L/nPdfqcI7RYWAL28S4GinLPnrYnAM57wdzzLyVZ0/ZHU37xnefu+aqH7g0GYAJFGuA9z+OpGD8UGSGDeFFT6P4sXPP5rBoK2qRs1gruYfgGXvGydyGItd5SNgTg5T1oHhYiZfDqQ+o8siYN/bQzRjMNXXlnUuNY8Z/rn7ljhHwnNgrq/phwRpSYwe1p4f4ZyvUaQ77JG3iL3tPHc+aa6k2XCe155LH3JyMib/Qat9+Qs45eTDfXfrT/steG0fGDt4Oz5gxikniiqznnDw8x8w959pjDXbYs65gJkb2AhQee9jJmLRVWgReNwTyfHlmpJyZPCueXc7QHMh6TnOP85k/yHgm8eP5Tx33/Qtu3tPseVd4NxLjaqQs+/pTVt+Zo3vGoC/43m3urWjayvtIu5fSq37gAm5e3AKav0FRfBvAxhRY9wDdvSzYDmwbB9+veuibw+Qwbxs+Gxo59yclZ4aNqT10bEQoBxC/HmDsgN0KK7G9ywfSGmRuxlR6fwTEN/vgqIaeGzx71rI3MiL6w9qn/VUfGEfq6wPd1bDn5p7nIc+i9vFtDvb4Y/SWMXKO/F+WIA/5iZFnjHjzHJu3efCQRx+ZxBsfOVizj571QU+MUpa5NjOmKdN1EXhdEOB8cYdwLj0znjfPlvueXc4QY8qrB0UXOW0kL7Hl3mVP22nD7713HHrse6drf3WPTFnWnHnjYn0Uf8aB7GoY+2oPnvZ3++fwr/aBywXP/w7c6zo8GHy4VoMGpLFXHyoan+bKQ4M9B3x0+Rh7WNyzKXe2lSt9vgh4efmYmj1AZvbBUZb0Hpcv/4lKjp3u0YVITHmRa89LPM/BtG8+u4teW6+CiunOl2eSvBjGvsp9Z0Mf6ooN9QADbae+stDVnZGynReB1wUBzgtnj3PJ8Hy6hud5c293vtLOEX6eU8/k6v490nfPu3F372F/2oZ3bpzY558z3mWI2SX32srP1T5wV8mWVwSKQBEoAkWgCBSBInA5Av6RYT58L7d0rMGjO/9afCy93+0Dd49Nd4pAESgCRaAIFIEiUASeIQJ94D7DojXkIlAEikARKAJFoAgUgT0CfeDuselOESgCRaAIFIEiUASKwDNEoA/cZ1i0hlwEikARKAJFoAgUgSKwR6AP3D023SkCRaAIFIEiUASKQBF4hgj0gfsMi9aQi0ARKAJFoAgUgSJQBPYI3D5w/8//+T83/SkG7YH2QHugPdAeaA+0B9oDz6EH9k/b/7fTB24f9/3lpj3QHmgPtAfaA+2B9sCz6oGzHrinhLpfBIpAESgCRaAIFIEiUASeCwL9N7jPpVKNswgUgSJQBIpAESgCReAsBPrAPQumChWBIlAEikARKAJFoAg8FwT6wH0ulWqcRaAIFIEiUASKQBEoAmch0AfuWTBVqAgUgSJQBIpAESgCReC5INAH7nOpVOMsAkWgCBSBIlAEikAROAuBPnDPgqlCRaAIFIEiUASKQBEoAs8FgT5wn0ulGmcRKAJFoAgUgSJQBIrAWQj0gXsWTBUqAq8HAt98883NBx988CLZd9999wbeanzxxRc3v/3222rrP3gff/zxf/COGN9///0NPw7j2vn75Zdffhc3euic4xc/77zzzq0/ct/5MJbSIlAEikARePoI9IH79Gt0pwj5UJ/zcb+T8SpdLQI+JE1w98DlEUiPvfnmm9sfdB3I+nhc6bin/Hw8G9fR43Pq+GjV5o7yOH7//fdvH7jYePvtt3/3uN7plV8EikARKAJPF4EHe+DmR+w+6fPBmR8/7OUHlg8pHykH8vrPD2Ly2eejyYAqj0wOdaYP/KkzH5Ly8y9QafOcOXlrBzp9pH/250eZuNXJ/JDNHMFHP4kV9uRDiScHD4LEnD3l0c1hLjPGlMm5dqAObcC7D67aK/1/COQ5Stx3c/uAGnzyyScXwUg/euamIj1p/xlTyqCXMrnnHD3tMzdW93eUPvaBi8xPP/10+7OTP+ITo9hN//KhOeTPO0aZjE3eimpnnj9kyfGcc+M5m2dV2zP2VRzlPV8EODdZa8+TGdEfflfkrSgyaWclI2+eE/mz7zO21Ek/zpHdjbST38KVfPphP/Pa4bA7xzv56Zdzuvq+KmeO0x56nFv2Z9zqzDvAfHYx6xPM8m7D3mroZxUD8kd5TXvENvOYMqfWL/2BK8gGRpCnwDsKEjurD1va5PJmzeBA5sMr/4qDzDyw03fq51wf8PjRH/rESAOQO/4cxC0O8s6l2kx5sPTgEg9x5MD/5LG/w3DmkVjlXB+JQeI/8yZG807MPSTam5R4VhfOzPU+uE6fXf8egVmDrJ+S1PvDDz+8+eqrr373EcvLLc8s8tTwaKQ8fT774L333rs9W/idY/bH3LcX4RPLvGTRnx/TaeMua/LwzM584M/hOYJ6Voh9dRZTl/jzPsrzh19sYJOfo5G11r809bJWye/8+SOwO0t+K+zpo0xXPbOSp4/wl+dT3VN9v4sDvXnW0rd5yNudi1Vs6kjxRbwOY+cckRdDf6xXZ15dKDKewbSRMjk3V/zmHBl9kd/uTaIv5Kdc+mFubJOfa+NIXuomFlMm1+SCP2rA/D7jpT9wSYIPnZcplDX8u4xZOG2QfDaXBZUql0U85yNGnIDLYD59EA987DrgIUeu+HDAn/G4d4pqM+WwL67EuMJUf9kcuziQVR4/idWpjyqy4jTzxpZ2Uy75mZfzjFkeNGvCesadsp0/PALgv+q9nWf6w17ZyeR55r5g7eBsffrpp7c8+8o96O4sKEP/O+zVjAf7+LskJ+0dUfsUn/mRQSfz1YZy0BynziJx532E7sQJm9Nu+mC+Oqtik7LzF4Tc6/x5I8C5OOoTe/ooy1XP7OSRzfOZckd9v4uDHj46x1Pv6O44io045zfa7+w8R+Y0z6T8ST3PeUdNGdb48x7JOXv6opa7N0lihdy8o9InsaSd3HMOXkfYI7fDRhtSe4i87jNe+gOXgPhAWRwo67sGOgtnsgmUYEiVgdIA+vbP97sHN7Fi10GxzEPbNI5z5FJnNgmyNqA2z6XEjJ8c+LKBcp4y+su8iYOc+XHfHMQGG6lzdLkgm/jPvLWlj8xjlZfxc4DIz1g9pFOHtXmoW3p3BOxhcd9R63gp9vQHPo6GNpHz3CiPPn8tRgY6x+4sKJc9jq28B8jVPvVs4d/e08alVEyxyU/eK9jK86PtXV+fOovqaQcqnvLIm5+jMXWw++9///vWVurNf76Qe50/bwToEc+/5yEzOuds2PvayfOXtphz9nb7R33P+VnFN3s4/XnO09+R/1N7+MrhmZbmHvNz7xTvC3A8Gvg3FzFn7R2HLvN8uBKDGCFrrPJ3/rRpTVfYE4P7xjXt6W/y53pVqylzzvqVPXBXgJwTIEBZkJS3oACKDAUSlJTLJki+dpOnfjYWBUkf6K2aBl0GNIt8blNnHMzxo033iEscc+4+VKx2eYubueLHkTpHlwvys1Ezb3I2b+PRh3mRhzgpw4fT/JBHlnjVSRvqyCt9OQjYF9MadZn9OGVcz7/wcV6o49HIeuKLNYPaM5dHDPaW9nZnwX1sOIgl49MWMszp65RX7xKKD+2iR+zYzTHPD/LorcY8i8Tn2UGetXipn3jCw3baTxvGOnWQseb6I+7ET3+l14eAfWUPkCG9Yr+cmzH9vzv/2MbPasy+R4Ye5juxGkd+kMcXPZ7+jvzv9sglzwrrPN/zbBvrubh5X+ww0x/xOVLHPN1j7fkld+NILNDf4aqdpNhJ/7nHPOPJvR02KcPcHLJWU+ac9YM/cGlIwCXhuwwSzGZa2RAM9iyecgC68q1d5aQ0z0peH+zhI4Hf6Uw5fZxDsT8bCCxt+p1P48rmTX/oeRiJL/FKrFaXS9o51ajGMeXSX9pjnv5Zg7V5mjf8Gfe00/XdEbDPpwXrOfmr9XwAZd+u5OHlGafurNGzD+UZ3y4e5I7+wph2tIV/9TKOXaxHfOxw3+Uwj+SlH+b87IYY7PbxydnJMc8ZMfBzNM49qxn7kb3uPW8EOGOz1ne5e+nPvL8TFc7g7iyv+v7oLTF7Pv04n/H7fXE/6So2ztB8CBK/D8ikM69z4sO/53mHGf6nbeqEnmN33olB3VVt1T9FsQE+u7HLYd4xO33vZmPdyZ3iv/QHLg4B8ajQp4LKfRKchWD/yy+/vBWz4SwuTSEos0GVgXpQkP/ss89euCR2GysLSFOlfjZ56hhXxvHC+AWTbCBzxI8D+8YDj72MCczEgX+/aC7w+WFgww/jxGp1uegbOhs189YmcsRl/axl2sk5+ZiDObuvDdY5d7/05SBAH9gfWlzx3FtR6k8t7WFq6ZlaycPLmqLL2v5lX559jE14/NAz2cvTh/FL0cE2d4C5uta+sU9bp9YZc8rCFwP8Oz8Hm1NnET+cs6PY8cPP0fCsIkO8YvPdd9+9UEs/L5idXA0C9KbDb6RrKPXn52jQZ34PmHunq5+69OzuzMy+P/JL3PndSR85z3vC+8D9aX/GRpxTRt2k89vo3jm6yJqLdwRxWJcdVvD1a15QhrXAXuoj7xr71Hs32DeGlM3Y8n6h5tpOm8aYvNXcHFY2VvI73oM8cHEGWP7snJ/DJ0HtSAGYy5c1QCaw2AREZdOHvNQRSPe81NFjT/70YZHZx5+DJlZH3l1o5p3xaotm1Q90Hh7ysDnEaiWXdrQNxWfaT1zYn42aeXsQtOceNsD0aCSuaUcbxHTKxpH97h0j4HlAKjGf9T+ygh7y/i8ecHa8rHd62RvUffqTl7XHJn1In2fc+sCvH0nsITf7Fln26Hd8EDtDqq1zKDHkmWGOXYd7eV/gU750+jYH7eyo+hM75MFi3mErO/jGDjbEOmOcsa1slPd8Echar/qF+p/qAfTy+4FNBv3kXITg+Z2SJ82+R46etMeh+DBGbKz6XltJ85un73Ni82xkDDMf/KzuGPincDNGbKYNcvT+PIqBXIwtsUgdfUC9P9VZ5aI8e8ol7hkbc2V2tjIvba+o9bY+K5lzeA/2wD3HeWWKQBF4Wgh4sdwnKi9OH3d5Ce7szgdVXtDocGGmzMpOXvBetPOjMi9eYk0ZfKBr7Cs/5RWBInA5Apw1fp7ieMqxzTvrKeH3lGMDpz5wn1K3NJYiUASKQBEoAkWgCBSBeyPQB+69IayBIlAEikARKAJFoAgUgaeEQB+4T6kajaUIFIEiUASKQBEoAkXg3gj0gXtvCGugCBSBIlAEikARKAJF4Ckh0AfuU6pGYykCRaAIFIEiUASKQBG4NwJ94N4bwhooAkWgCBSBIlAEikAReEoI9IH7lKrRWIpAESgCRaAIFIEiUATujUAfuPeGsAaKQBEoAkWgCBSBIlAEnhICtw/cX3/99aY/xaA90B5oD7QH2gPtgfZAe+A59MCpx3QfuH3c95eb9kB7oD3QHmgPtAfaA8+qB/rAbcM+q4Z9Dr81Nsb+daM90B5oD7QH2gOP2wN94PaB2wdue6A90B5oD7QH2gPtgavqgT5w29BX1dD9jflxf2Mu/sW/PdAeaA+0B55CD/SB2wduH7jtgfZAe6A90B5oD7QHrqoH+sBtQ19VQz+F3xobQ/960R5oD7QH2gPtgcftgT5w+8DtA/cl9sCf//znm59//rmYvkRM+5F43I9E8S/+7YH2wHPsgT5w+yHuYyx64Ntvv7154403Dn+OHrFHe//85z//A+sffvjh5qOPPvoPvpcJ8fDjGtnPP//8xVr+pfRPf/rT7+xeqv/111/fvPXWW4dxEGc+9v/whz9c5BNd/LyMfMGZ2mSe2D7CXlnwN/aj+ipf2sdAe6A90B54/B7oAzceN69TQ/KhPufj/jphQq48ZngMHeXtIwf8Tj2G2f/jH/94axOKDg+rI72sy3wk7h6WyB3ZxHfm9Ne//vVW3kfeSnc+CFOfOXHmAzb34U99cUi5o7kPXKmy2M14iYOf5M180Z1Y+mjV7o7SD/5CgA0e9vlLx06v/Mf/wLUGrUF74PXtgUd74ObH6L4NyAdo9UHDro8RffCx9AGRc/Z9eMwP8d/+9rcXjwM+cPkAUha+c/b/8Y9/3OpoU//nPKCUPaL5sSYP8sy/qBEDvrUx45APZW/iBF+7zsWN9e5xoB+xQJYfdLHHPDFM3Jyrs6JpJ/fTX85T5pw59cneXM3FSnxWMvJ2saBrfRLXjJFYwBl/2ltRcUUXDJFPO7taKYP/ld20c2nfEkfmNftR31LknSdd8Sce+Jk5gLt28L3KL3nKkifnKPd2c3UuodZcP66h8LCVc2prfcmR3OUxh8c6a7WKBxnzSEyNgz39r/Th8UvRjGUlS0wr/l148y4VL2zlnJrl2n6YsYjZqViw5S8yYpT21Z/25SdFZspRAzBPObEl5ymfcuzZB9hZ3THE7H9ihEzWFvvaS13y2/WRZwKq7oreJba0uYoNXI56D/1VbVbxncINHWxRm8Rm2so71f6YMqw9c3kfreTI0ZonhinLmwJ8kCWPrNWud45iw7b7iXv6ZP6UY5uxzvWjPHA93BZ/BnXpmuLsGsiG1ibNm8XMRsUG+0eNja6HKec2HbnpCypf3vQv/1KKH5taXQ6GvIzNfZrZ2OVBsTVxgi8WyiZWOXcfnysM8Yu8csQoTsqzN7FSXko8eajlz1yR0b4y51Jixd6R/Aor5Xd78PMi18+MXTtQ65K8U3N0wDTlvDh3PPYnXhNr48UGe4nR1LeO6XfqZCzM//u///s2bu8EKJhpI3Fljj30iBuZjIG9xOAIY20YD3ny19rMj7l/wVXuZVDjFq+0ad7JIzbPnTkaJ3v8pHzOwQlZsMtauz6ln7aYG8uKfxTHlL9knffG1BNL+GKTPOVXuLqXVFzkgRk819BV3XLfuTVzDaWfpr3cZw/7yXOe9owha6qclLp7XuRJ8/5d5YicuO9qri3oXWLLs5q2MrbkZxzEtsstdZijZ2/ucAMr/UI9X9OWfaSdVQzibj9OG7lGRl8ZQ8rk/MimvXMUG7bcJxd9pw/nTzk2Y9zRR3vgAhoffD5ku+DO5dsQK3mL7Z6N6dpmdg09amx8ETtyWXjW2J72bSLtowPP9V0pl9G0kwc440wfxgcuXopQ+VM2+YlVXmSp4zwxJC4udPeg2k255Kes84xZHvScOqT80ZxY52Hf1SwfY6fm+ARnMTd/bKeufOTBxv5d5Y4s/MwH+3mmyEX7+EKWvuHsiT12lEmatsGFR2jur+b4MKed3dQjFn7EJXNhTgy7XlbWmmEHeah70FP66dtezR7Qrvil7fvMwYcffHKe0tYqD+Wg6qpzKkfkzCPzVR+b/Lg+RY1lyhHX5L2sNfGvYsf+xGPFOwcjYwX/rDf5zjtMPNXZ0YkJetie/NRf1d994sj+BJMjW0d5cweY5yk7u5obF/QusRFD2nCescmDZhzEnlik3Jyjl7JH+WLX+3FlB1vwj+TUU8b1iiJDX7hHPXe9jsyRTXtHmcxZ+1DzR24no6+nGlvms5o/ygOXQGiQV/3AXV1INMNspKPGzr/CoZeFZ409m4IP+dHFs/OzKtTkTd/sEwvNypyGdZ66Nv8qb+Tg72RSx9qRI3MPvL4yN3EXK+JKH/LRXeWlTfxglzX5OZ861iHtauMUzUsQO9SPeKHmkbnCzwebc/irS0MbyGEfiqzy1gwf8MCJmFnnIwi5xNi8kOc/ztOOfGw5vwtNXLBtnlJy0S6+xA6esbo/qbbVESP0sEWe5g9Vn7k9gYw95b6UOhjnjiqLzfxIi5s5EdOq39U/lxKr8a7wWdWW2JHFB7qJOZjlehWHuK7kyDuxXenLI4aMRb71c/2yqP6sxbRrXtDcQz51sCPmyFFH8Uw95uRinb1rWE8512C3wnXyWBMDehkba2oOrlDtrij65iE22kx5fGFvxqDMLuYdnsjnHaSdpA8dm/laNzDM/FbnxvgyL+2scEOe/ZUteiF/0cF/Ykwss37aMo4Vxa79YN1cK2/89qV8KD5n7xzFRi35Qc2LfO0AACAASURBVJf48J/2cv6UY8s4V/M+cMeHApBWjW3T0QwCCS8vVdbzwCBP46mTFFl0knfufPpGj0Y0vpynTXx6UFa+0SP/lUzGe8lfcPGPPXDgh4Pn4TUeYzQvcUNemflBQpZ41Ukb6sg7l+LXmnKRcQnAY04sK8ywjdyMz1roG7vYAV/+Goo8OPzrX/+65fMwJR/k0eWHPFhbD20lhvKg2DZebRHb/DBZZ2Sty4pqGxvak7ejyIGTNWa+sm1uOzn+zZl62ECef1cob9bYGrjPmhiJhzx38WZN0aFG5pqxMQfflN/ZPOLjQ7vIERt2U4e1McBH3nxYk3vGQX+4hopB2rSHlMs9bKf9tJGxorP6wBKrvZd2X+YcnGbsxEw8Kz/EnbGjnzmyZw+u9MXAvOiLlZy8WTMxcd86W9eMTRko+7O3c986UmNsEOfOFnrs4zttmFvyck4MUwfs5j2SOszvEht5pJ2j2GbvkTc+1acG6LueFFzPwW3WSjvYzp7Bf9Zq1hw9bWljR4md2PBhXVeyYoz83M/e2cU2YyQ+eNNWrp9ybBnnnL9WD1ySp3nyQOTHTHAoZhZ8HiLlOPBemDbdvBRWPtXHz0re/SM689C/OsQ/bWcjcyixobw0LzH28zAnVpc+cLUPTdzSzswhdZjPmMUg7Sk3c5+2dmtqzR74WVtsEdu8dJDx4HMx8bO6gI0Fe/ZVYk9ePG6xlXGhl/hnnvCJKeWZG79Y4mf2M3LaVi6pNqTIZ7zirm/kZuzIwNdu6oORmGADGfaNCb30rYz+yF199Fgjrw/2Mh72+CVCHjjmoyh9YcO19cWvc+uHD+fGdQ6d/ZG2U99cwMZ45n72QPZWyuV8VQv3s7fkTSrOk8+aGFdxrmTvw8ucV1im7RkT9bJvLon5CLf0l7GdY/8Ir7wX08ecU7dzZNPXjHPaZL3qB32t5Fc85aGrfXmnYhP/lFN3nkPOeNZYuUlPxYYNbOUZX+lMOeS9Z/SpjOtTVPn0PXVWfpSxH6adnQ5yR760C502c8/5zg/7Dxmb/pO+dg9cwM+Ph/MEJRsb+aPf3L0ssOP873//+4vHEYciP6b5v8iQftL/OXP8cfCR1UdeAMRNM2qLvYyDWM09/xuq8PlBLxsVX8qzZ6Nqf9KZG5hMm6yJS9zEcNpyTT7mYM7uaYN1zt0/h1prL1R18Atv8t1PSq8QmzxsWpesWWJJvDyOs17os2ZPW1mD1Hcfv9M3dZh2kScm4xIvqXzpKm/q8Je//GUZN/aJb+qDBfHN2ImPvcwXXX6ICXn8mRs8c2KPNbLaZY+8iYM5utiXJ15S85Oigy1qgm3zYY2Ma+faOYca45SFT4zw8e+cnJ2njvmgZ9y5v5ort4oBP+K70oWXv+BOmV2fTblL1/MuzdhzvrJrD+UecYpn9lTKMOc/KRAP+xD8xBAZ9r3XmGc81odaTtuusetcX6z1AXU/KT7dIx/94tNvFd8Z8yQG44CXvrSLPb8DO//oce+rs6J3iY1zha1dbPjd9R6xJo6cV7FZxede4gY2nnN14GWvwAfnaV+sjMFe0Q5UW8mbc+OCT19aL2MDm3w74If4kM96Gg/U+VFs6OPDXplxsX4qsSUu1oG47f9V7Ff1wOWg+GNRBCKTpzGUS77zbGyaB2CVh6ZNmmfyaJiUt1mxrzz7xqjfSyhF1cfqoqbw7kNtcn2Qg43BXNkpl3bUha4wyf3EEH7mnXjkXuKatnKe2KadtH9XXL3AsEUs+sWPNlcHCp6x+MClb/LiMU9tij1rsQdT96HYzDjcwy4+XUOJL2XRxS7xrHCFZwzuS+0BKba8TPFlTyC/6i1ksK2+cZqna6lyq3z9Rco989QWlDiwkTz7D0os6ukTCo7axwZy6qUce9SGGIxVmnKn5sSQMTLPmruXWONTvlTf1AFZ+NbyKAYxWMmu+nXa0n9SZcTR9cuiM3/tnsISOXASK/XI3fjn+VQGmn7TBjo+IpnnPZj67J3CJO16powtbc05esoRp/vM6VXWmWf2GHGpK0XH3pCXsWnfnFyv6F1iwy62drFlLYwPqn/il08e8ldUucSNmOeZYH/eBcitcEnsxDJ9ayt5c579LB7IGFv6IIf0c9Q7qZc66Z/4sJG8nD+V2LyDic1ciHvWLmN/tAduBtH56/s/xPyca88F6OHiwHHxzAuQffbmxwF+6osDstrk4mHt3o5qG4p8ftBSBz4/yM3LO+VexpwcJhbaJUYuTdelPf+P2QM+eqS780OM9DXn8lXFa0xSzu3ON/+un7O923/ZfGOSPvXYdo847qlXdR/NxyjY7e5J6tXY7nc39oH7mv5/MnvZl13t3e8gFr/i1x5oD7QH2gPtgZfXA33g9oH7yn7j78F9eQe3WBbL9kB7oD3QHmgP7HugD9w+cPvAbQ+0B9oD7YH2QHugPXBVPdAHbhv6qhq6v83uf5stNsWmPdAeaA+0B16XHugDtw/cPnDbA+2B9kB7oD3QHmgPXFUP9IHbhr6qhn5dfjNtnv0rTHugPdAeaA+0B/Y90AduH7h94LYH2gPtgfZAe6A90B64qh4464F7Sqj7RaAIFIEiUASKQBEoAkXguSDwX88l0MZZBIpAESgCRaAIFIEiUATOQaAP3HNQqkwRKAJFoAgUgSJQBIrAs0GgD9xnU6oGWgSKQBEoAkWgCBSBInAOAn3gnoNSZYpAESgCRaAIFIEiUASeDQJ94D6bUjXQIlAEikARKAJFoAgUgXMQ6AP3HJQqUwSKQBEoAkWgCBSBIvBsEOgD99mUqoEWgSJQBIpAESgCRaAInINAH7jnoFSZInAFCHz88cdXkEVTKAJFoAgUgSJwGoE+cE9jVIki8CQQ+OKLL27efPPNwx9kduPUA/f777+/eeedd26g77777s0333xzawrK2vHdd9/d/Pbbby5fUGR2Pojrgw8++J3eTvaXX375nT8c4A/9Ix32cxD3Tj7lMu8ZY8p1XgSKQBEoAs8HgQd54PLByA/xfeBYfRix5wcPP3xY+Sg6+EjpPz/EfjjZ88PHR1BZaX7ktDV9ZI7awn/ymd91zMdM+sAmuRgv9O233771rT/iViflnCuHjLx8HGFPPpS9xG/6w17Kax9qLiudlHO+sqMN9u6Dqz6eI836rOKn5kcy9sNKF56PW+b0++6Byz7n6rPPPrs1hU9+ePjO2rCevYRd5LPOzD1jyCtz6+Dm5vZx+9NPP91SeZMSkzEzP8Iidenr999//0Xs+OHnLsP7gnym/8w3bcs3/9xjnrHNvVxrB/zmIMdZmykDdtqYsciHPrdBHbL3V72X+3m3Us8cYEg9zh3ZA9kb4mm/pj33oMTCoJ+T7zz1VnPP32ovz+WsN/JgkvGvbMjTVuLoHtR4odokp8REvnrqJEbZo+zP+niWtQElN2SJ8dIzkHacY8PYEreMLfnqQckxY0idzFNZ404bYgYFw90wxqRTHrwSn7Sl3s6P+5kP+ticvLTLnH17ZtYlMSG2+4yX/sBNwARgNu4lAaO7AhiehwnKmkEB5eecPcDCnjGu4mLPRkt9fcCzONjU1q3zm5sXH339sX+XQWz4YkDJj0ZwZJzwbAr3d5TYecg4xMq1NB878tDlEcMgvowH/+wzco6ch935rdDm/xCPeaeINuDlPGWufQ5+nqkdRYZhX+7k4HtmxA3sj/TmRYSevUnN0d/1U/LpEx4JeTbUZc8++vDDD2/n5CRv9r25HuXJngM75HFKPnXUPYeCA0M/rvNM5Bz87HcwoCautbHCfcYCRuKZc22QD/Oj8emnn77wbSzIZ7zYMKcjW09ljzzIHbobedeJ10rWnuH+OTWoI/Kex5U8e9ba/ewHeNkPykDRnec3952bv+uk8wy6RwznxK989oe8SVc4oGcvTdzTZvY//F3e2ABz5HPMbxZyq0He8wzM+qCHvmct7UzdGSc69E76Nzfyco5N8LLPmOuPeOxl7DvPOFZzfc89Ykl8MjZ94ocfsYDO3LRLDtQg7biXlD+OaD9zxTY4OshPv/IuoQ/ywBV0gUhwLgkOWZJf6ecjJ4tHowgc+nl5pR3kbKCMCX8Cmrb0AY/8zBHdlEtb2GfvLiPjUD+LTTzTNk01eepKM3br417SxC35zsWD9cqO+CQGKzntQYl9dXBmrsiAz+s2TuV8ChdrssKN3kn7WTfq4lmhhnkRo+eHMnXSBzpcosSHLeLQFzz2s998SJyi+pj9IV+qL9YZr/vokwN7L3N41lZ9v6oF/sVBHWKXt4stzyIy6JqzPYHtS/IzFuNI39YseU9xbt9ah12MWQt7dMraY9qc+3ONHXSsw9yfNZv7rle1V5dYTg36mp/V4Lxiaw5iJn5+dvGrg/7OvjLZj/JW1DrMnsv6GdvUV8e+nfusL8EN+d2ZAfcVbulzFQd5+Es7shMX85xxplz61gf01Njhlnr4XfUUvOwVbFmr1DfOHW4pm3PzTZ7zS22pJ33pD1wNQw18BUbKHc0tDODlSMDZ4zBKU85DOotnbCmrL3nZTNq2CTMnirBqjIxRm+dSYpk5Zw45T5uJAzbmyLjFwIdEyq4u1tzHDr4YHoDcN3fjcW+Vl3tclNgyHmOdOqynXW1cMzVv8WENRvYJ+M3LjrU4go01hzqwgy7UQf3s6VV90ccvj130mKc+PvVrjNRMm/pRxjUUW8ia56Tmqw6xTLvuQTMu8PCvDNrVnzYy9rRzyVycsckPeObwfCSPOFd9feosqpe2ph3ynr2R8nOuTbHJ/fwFJ/lPdX5Uz9l/rMmd3ljluarlLm+ww9Zq5Pla7cubdYR/jq51k2ovqf0PzftAGXzv4lcm8drZwba+dvY8L9idGLtGBn/aWmFDj3NeVgPdlc5KFh6xgt8c8I1hhZu6+HJ4/qTwySv1zRP7M07W//73v2/52rS2O0yVg057ueccfFb50m/6IP75nVZfmjnKO6LmvZLB7yqmleyK92APXBt21/SrYFa8VbGRA3QKwkAGPxY87VBY9okHIB3G51rdKTN9sEYGf4yVHnyKjN+7DnRnYVkb38xHPzayecuHokNcqzHjzUdAXvRinbkRE/XIwRp/xuPeKi/38KOdrM/UYT3tauOaaWJO/uBuP1I//qMdcGPYl17ESbGTctjg35ymfepgr63qqw/soucPtqwdes6nf+tkn7jWLvmtBjbnucBH2l/NtQVOXNDmT7wMKDlgP/tdvUsp8dujK/xWeRM3snO86gcuMWQs4OK9AW4vA5+Z40Ouqa11Tj/kQi/kIG/yZUC9j5RZ1dK9SelTbc09e2Pyc42vVT+co2vO3gNpdzVf9SN+dvFjQ9tg5jgVG70zbWoHXcbE2LVnFpmpo3/6dD5w8Zd1VfaI4jPz2smucFMXyiBu+4j4PEvsZ06skSPeiSPruz5wwcpYVnns8MEnGBgvutiBZ63Ym7Yzx5W/yVv1RPqa8pesH+SBuwPsksCUXRXbPanNznpeZDQMBUAGWw6KkAfBC8H9SfUxi4kctrJRV00/7Z1aEys+c6Qf/K1iMUca0Dk2jD/tzXnGfeqjiq5YTyzZwz8+02bqTN+srZV75Geeie+pWql/TTTrx9zaioXrmbP78MGTy4mf+UhJm9PGXFMLasV/3IZffn788ccX9Zu9h77xezmypm8++eSTF32kH2VdX0LJceaW+uzbm+lHPfdS55K5GKfO0flADp/87Maps4hP6pHDsymPGPg5GuIBPRr3xejI9kPs5RnQvrnOc5O5KaMOdIV17ucc/Wmf/VO1sB9WdTili316wXMuhZd3aMbJHJ8z1hVv6k1s8QNGuyF+xsJ6ypNjfpuJK+uibe8h19Cpm3vMZ7xz35qvsJ+yrBOjlS65WYOkxDFraZ4TI+NOytz8J37s5cDXuWMlm37EF+qYtZl5KTcpvua9hcwKx6l77vqlP3BJjg/MKdDPDdCiHzWcDYFN5FN29dca5NChMI5LD6Z60GwK5uk/5S6ZzzwsujZouokxa/iMPHisbUz1VzQb9dRHFX3z9gCkTeJnpJ2ZQ8oznzGLwTwwyM3cp61rW4Oxf20id3uMGuSeeXsO81LNjxz6PFAdrK0ZPHzYyxNvbHuu0FEPimz6wU7GYN3shVXvuJd6OZ8PWOLkL9BeluZubvYpa2J0nb6dQ83fuXbOoTM2dLSd+mJGrsaT+znPM5R85+SbDwJsinPKIHc0qN2pWLBt7Ee2ntIeOc28xGxikr27qhu42menctxhBX7srQb8GWvKHemmnHPsUddTg5xmz6B3qtbsp/1Tvao8ceGP8zLHxB08VnFYw9Rf8XJ/1Qvui9UR/spKE7dzzg/x2XPkmZibpzkoJ1b4BAfWDPa9h41n0onl3J/rVe7aINacqzt1iMvYlZkUHfAyF/etgev70pf+wKUA+TFinpfGpQHngUjdL7/88nYJkPmgpgAeBsByjrByqyKtYkzw1cUOPvO/eYguA7s+Qm4Z9/g/xK1/c8xGwtc8HHlZzMtJHDMk7CaOidXqosr/5iO+qa0DXWJieBCYZyOvYlBfPXMwZ/fzMOTc/WunYEreExd7Ar7477CYlyE6jt1ZYX/6tI7q2DesiTH7Mu3nHnF7btCfsSC7G+ShPL7oGXLX3tQzLik6+KR/9eMaGQZr59Pe0Rq91YBvffDvnDycr/Tgrc7ilAVP413Fjh8xm7quZ3/I965jnX7cf+qUmPnJAUbUXszcg6cs1P5wn9rt+kwZKbZnP8CbNpFX7qgfdrr6W9GpQ/zwGNl35JRr9onTuFa2tSEe2BU75vhiZN9xVrWJrPNpH77xZGz+LxWY18QSX/nLnjFCiYczb1zTJ7q7M5C4+T+PiH7GttNNP/hIPNTHvnPks/fAImsmZufUR7sZA7gSK2N+08VG7I0lY8M/awbymQ+8meOt4Pg/+J966hrbULnT8qU/cO8URZWKQBHYIsBFwF9buXS83PhQcFn7CwHKyLH20lHGy4oLkYuSf06Qjzt04WObHz9SMyAvVC43L0J1WOOPGNCfsflB+uqrr5b2saO+sthY/Sg348PGlJ+5GLe6YJMy5DhjV7a0CDwEAvQgfffQg3OV/6nNQ/qb5+whfT207VeJ20Pngn3v7Ffh67F99IH72BWo/yLwAAjwCPQjw4OURxsXW4582CX/1Dz/oohN/h2tv9Gr6yPVdWkRuDYEeJh6tvzF6i5nil8KOUN3GfjTt9RfaKe9+cvc3D9ar355JO7dmHfNTu6x+LNuYLcb98FtZ/Nl8629dN7H6Y9eO6pdyr6MuTFJj2J7Gf7SRh+4iUbnRaAIFIEiUASKQBEoAs8egT5wn30Jm0ARKAJFoAgUgSJQBIpAItAHbqLReREoAkWgCBSBIlAEisCzR6AP3GdfwiZQBIpAESgCRaAIFIEikAj0gZtodF4EikARKAJFoAgUgSLw7BHoA/fZl7AJFIEiUASKQBEoAkWgCCQCfeAmGp0XgSJQBIpAESgCRaAIPHsEbh+4v/76601/ikF7oD3QHmgPtAfaA+2B9sBz6IFTL/A+cPu47y837YH2QHugPdAeaA+0B55VD/SB24Z9Vg37HH5rbIz960Z7oD3QHmgPtAcetwf6wO0Dtw/c9kB7oD3QHmgPtAfaA1fVA33gtqGvqqH7G/Pj/sZc/It/e6A90B5oDzyFHugDtw/cPnDbA+2B9kB7oD3QHmgPXFUP9IHbhr6qhn4KvzU2hv71oj3QHmgPtAfaA4/bA33g9oHbB257oD3QHmgPtAfaA+2Bq+qBPnDb0FfV0I/9G/Of//znm59//rmY9ly1B9oD7YH2QHvgEXugD9xHBP8xH2M8xD766KMevlH/b7/99uaHH344xMVHLPi98cYbJ3/++Mc/3tqEovP1118f6mRdPv/88989mNF96623/iM+5I5iwXf221//+tdbeezt8iDP1Jlz9HaPefhTXxymnd0aG8QnVQ67mStxzBxmvuhOLP/whz/cUG/t7ij98Kc//elWFhvgf47ezl75j/sfWxb/4t8eeD164FEeuPNjfJ9mw5YPjrTjB5YP4fyw5gcSOfWQQ371AcsPqvIzD2T40LqfH0Z5UG3x8U7+JfPpO/1iB9/6gc6cwECdlHNuLPlwwKd87CkLZQ+fOwx5EKQ8stoylxmj+5OmHfe0wd59Hh/oZmzaT7rqN/eP9pD529/+9iI+8dzFaw9rW0rf7GJkjxiUhVJDa518ZKkXe8bi/rQz65c1yLl2kOcBmXVJOebUW39zb7UWWyjxoYt989O3eWlbmg9l5sq7v6Ng7QMXmX/961+3Pzv5Iz6xm9v0Lx+aNuTPe8z+YH/WPPVzPms9bbBO+ZyD6y4W5Kg5OKXOfebEmjmn/1W+yBOf90jmBt+eORXTrEvKY3u1P89Hns8dZsTnXuaT/FXc2PbcGlvqMJe/ouSgX+KeMuhnnyKLTOKvPnLpD3uJ0bQ1fc21NcT+KjZzZ986ayNrkLoZd/aTevCwN3Nxf1JiTF7GPPeUo2fETB70lC55rM5U2jvqa/St9y62xCcx2MU2a5D5pK1VXNhcnR9swM+6pd27zl/5A3c2PEVfAXFuQoCSRVEPngWFsmYP//Jzzt4///nPWxls5uEhPoHPub6g7OdfhFivDmHqp4+0dc6cGIkfWTHFnro0YeLKnHjc31HzcF+sXEszV3noTgxzj5hcS8nDS8e5eytKPOad+9qAl/OUOWdu3byMVtR+E/eVjLxdLOhanx3G1gJ/2lvRxAMM7XXzXdXKPSj+V3bTDrGs6pd2ck4cmdfsx5Rljvzk7fgTD/zMHMBde/he5Zc8ZcnTD0Lur+bqXEKtuX5cQ+FhK+fU1vqSI7nLYw6PddZqFQ8y5pBYawOdnK9s8Ff/GYty2k7c3bsrpQ55fv7xj3/c4mO+xoL9VezUXR0wJcZTsZjHTo79xE+53fkgRuNc1Q9989EWa/tCXlL8Ewf2pj668lMn53mOE19lZjzyJ0V3xonvxGjWYMpPm9QR//BXsYHz7hvDHw+0l7pHfYu9UzFpk9hmf6D/97///dYvueJ31R8pk/WRb76pS1z4w6YxQNFPnHIv58TGGcLOUWzsi3nq72KbNWCtHv5c59yeyt5QB2p86ubefeav/IGbwZKMBUj+JXMaYlXsybOppPqgeWaDCzZ8YuSBoDx02oa3ekSoa9Fca2sXu/tHFN3ZlNjXFznMvLBn/uSQh0lfmYdN6V7SlEu+czF0vTtEeREha3zqJd3FjG38KYuNIzvKrSj4pS1kdrF72Z1DsQPeYm582E59+ciDjb22yh1Z+JkH9rEnj1y0jy/41JVzJ/bYUSZp2gaX//7v/17KpQ4+zGlnN+WJhR9xMW4pMZCDsctPas3sV2jun9JP39jiLybZA9o9iiH9nTsHH37wec4doxxUXX2dyhE588h8sZM26AnXR9RYUgZ8ztVPvdWcGLWXtVCWPfmX5K7+EU1MlMMHfbE6h8gQz+w7daVidqp++EJGvaT4wFfWP+fIUgNkUm83X8ma604H/gpzeDw+dxgRe/betE/O2JCP7KoW7iO767dVXuhZA+ZgtNPXx6Seocl3Tcx5b8pPyv6qV1a6M8ZTGKYfsEu8wWv31+DUW81XsSGHTXsNbLNvVzqr3kAfPr2T+qs4LuU9ygMXUPIjd2nQKS+Is2FoXPwga1NKU38FOI1hE84GQzdta2t1ED1MFm3acm2c2jqHkvfMOZst52nPvFZ5I5d5YINcrVXaOfXAFUN1iFc7eakYT8rNvNzjcIKZdox1YrHrCe0cUWqVDzni469A1hBd7KcNcMo87LPUUZ49+DwwlXMPak7MyRO7zM1JWWszY0Gf2kwMwS3j0Tf66Ew7yOsbn+jikzl7zllP/b/85S83/JiLsRr7pMSCTWKwtlB45DLzSZmjufniH1vTr+vM3dqkXbHSBnmZmzYupWKCTX7yTGBrdccQp30GzbiJMdereMxDuanj/kp38owl+as8cv/cuXak2WvYEDvtUTNkOVPUzfzch8KbGOd+zmdtxcWcd/btmZ0f9dOefrMW5KMt8lIGamz24MrW7I3Un/NVn80zMGPABrngW3vGId1hNGupPhS//Mgjx7yD5EuP9ld5oWcNnGNDrNO3PiY1v8ln7d4qd+XxscKT/VXdkM1+Aj95xE382p6UvdzHN2dkJScG5DD3Wa9ig499dYgr62ucaW9lx7cE8Z1Tg7R3av4oD1yDEvAsgnvnUhtWkNXzEqRwyFiIeWBWgCOPHgVaFWkeHuSnf+IgP4vHetpynU1h/KfoyqfNj27O0xb5Eusu71Ue6mfemZf7ScUwec7xwT5r43HPvMDGQ6cMhxN+ypKnOslXR965FPtiwIOaGsJjbi+tbNnLGV/O0cEudsCRRzT50Jf8m074/Edp9gK6/JCHus5Zo7c6N9hGD3vasg8zbvaUFecVVQcb2pO3o8hRE+NjvrJtPjs5frFQDxvI81u+PNbWilisgfus4RPPrEXGjm3X6CR2GRtzMEt59S6h+NAuesSG3bTBOvFG3nyQI/eMI88UfDFIm8ikXuog5z7ztJGxskffZiz6WOXh3rk0a6W9xAE7xikfuYyHeMkzfSIDJsnbzWe+2WeJ305/4orcJfVLu9RB/9kT2ONHLLIXzonR+qav3RxZ/LhvXVxDjXEVj3LoZZzyk2LH3kV21iJlVzmseOrMGrDGn/vnnG3zU0dKL4qBvBVdycHDd2Ks7sSaPofnPvmi63pSZMHTbyd325TJNbbS/lFs6OFfeSjy2mM9YwMjdJCZWJJbnmPt3Ic+6gOXwG2yVXHPSQywTjVWAjkPzCyoPpHjB8B5zMmHpr+0nTLM1bVorpU7J3ZlJ0V3YoZ9Gwxq46WuzZWNxv5RHuqDlfZPPXDRmVhrB1/GkTaPdNibtfJASbVv7VxfQo0LHeuMfR5brqc9dNyjBlwmXtJZA7DjL5s83ubebwAAIABJREFU0tD5/vvvb/FEZoU/fOzqDx1rPrFQRjwTA2zMWtiLUGOXKivFNrEQd+ZmjlJjgBJr6ucettCB4n936aJPvsgojx3i1CfU/JIHDunTOT53DzRk2BeHrIl67mnvUood4kw9a5G89MOcn9wHm8R3d95Tx3yojfxpY4cb8upD1U9Kbkf6KbubE1vW0fmUz3zBjx9lsDHxYg/+LnZ1oRMTY0jqPZh6zvGRGN+nfuby448/LnEh79kL1IBaGM+kyCNzlEPqTNymP+wkNs5X9sHinBrgHz+JY8bkHBnn0FVe+FvVQGzVR+aUP22pA6UG3CnJO5rnt1Pdnd95psA0azv3j/zia3fXqpe9cyo2dawB8vzIn/jCT4yJ3V5Jqj3t3Ie+8gcuAPiPlykWgF7S9DNZQTw6NNkEyKds/rUmbQMyP8aYe9mM5DMfwMq6Z9GnLeynLfXOoTOPefDmQcAmOMBnno3G2liPfGed8pDudHaNmrGlnZnDtDtjFgNiF2N0kCPXqX/O2piJUZvYIrZZL2To3zyc8/GEjrFgT/yz7sTLX2+xlTGix568zBN+9rEyxi+W+MGufpXTtnJJtSFFJ+MVd20hN2NHBr52Ux+MxAQbyLBvTOilb2X0l/VFjzXy+sBOxsMefyWXB475QUpf2HBtffHrXBzx4dy4zqGzP9J26psL2BjP3M8eyN5KuZyvajFtHH0AxTlt5nzinnt3mWtvhTM89rGbc9bgtcMMDE7FstJVBwysjbxJM55T9VN3V79dLsknHuLS1u6b5n7WXN4RnXhwjsR+6q16LGUu8Z3fhrSR84yN+aq++Ew59e0v10d5KWN+rr1LdngolzTzmndhyjGfMeI/+2/WfurnGgxWOKTMJbGpp83se/bgZ6zwqMXkaQcs+XH9Mugrf+ACAo3ko8CPzl2TASxtSWkKgGS9+qCk//Sr/krHvRnvUdNQrGwYfWkLLORdSjPvVbzY1g/UJtTPbLRVHh5e7agLxad8qPbkzZiw7x6yacs9+KsLKmWprXbyUtEGe6dspL2cgykxYCtjxI82wXUeUHjGwsfFgzoPK3b1lzbMB8zch2Iz43APu7N3iC9l0cUu8cA3fm3AMwb3pcYpxVb2vb2FPD6U0zYU25NvninHXLlVvp4f98xTW1DiwEbyiJc4ocSiXvoGR+1jAzn1Uo49akMMxipNuVNzYsgYmWfN3Uus8Slfqm/zg28tj2IQg5S9xIb+k6Y/Ys3Yc+8uc+0Ro7Hrm5qkTXJiL++diR3r1NnNxXe1b5+wh5xYMl/FNmNARvvkpY52sJs68w4xJmxoB17aUmZFsadPKTnhEwrO6T/x1J5yrpNaJ/NJW/hL2dXcmFI2Y7PO7Gds5MU69Y0zec71TbzymMvfUfNzP+uuHWjK5RljT11o6jjPfXKfZyoxZZ7yOU9MxIL9jM35yre8pOjPGqTP3CPv3GNOHPbG3CNefibfNfU1X/PBx84eeqfGfyGgg9LX438c+XWsMwedfz7AAfPwQD3ciQl8Lra8uPjnBsj41xP2OJA+mJTVDofSi8pDjc28tNnH17y4jUmKPrpehKzTjmty1D8PO/7JQeaovaTY5ScvLv1oyzzQ87KBoqcM1MsULOQzJwbWYjT9KytF3osOP6yNERn2ZozwMwd9zBi1qy9iShnxAl9lSl+/ezHvi2uoP2eDn6eYy1OObYdX3ms7mcfiP+XYXjYmfeCO/09WLxvg2nv9Pn6teWveHmgPtAfaA+2Bx+2BPnD7wH2Sv7X3Ynjci6H4F//2QHugPdAeeM490AduH7h94LYH2gPtgfZAe6A90B64qh7oA7cNfVUN/Zx/22zs/WtJe6A90B5oD7QHXk4P9IHbB24fuO2B9kB7oD3QHmgPtAeuqgf6wG1DX1VD9zffl/Obb3Esju2B9kB7oD3wnHugD9w+cPvAbQ+0B9oD7YH2QHugPXBVPdAHbhv6qhr6Of+22dj715L2QHugPdAeaA+8nB4464F7Sqj7RaAIFIEiUASKQBEoAkXguSBw+//J7LkE2ziLQBEoAkWgCBSBIlAEisApBPrAPYVQ94tAESgCRaAIFIEiUASeFQJ94D6rcjXYIlAEikARKAJFoAgUgVMI9IF7CqHuF4EiUASKQBEoAkWgCDwrBPrAfVblarBFoAgUgSJQBIpAESgCpxDoA/cUQt0vAkWgCBSBIlAEikAReFYI9IH7rMrVYItAESgCRaAIFIEiUAROIdAH7imEul8ErgSBjz/++EoyaRpFoAgUgSJQBI4R6AP3GJ/uFoEng8AXX3xx8+abbx7+ILMbpx6433///c0777xzA3333Xdvvvnmm1tTUNaO77777ua3335z+YIis/NBXB988MHv9Hayv/zyy+/84QB/6B/psJ+DuHfyKZd5zxhTrvMiUASKQBF4Pgj0gft8anVRpEePgYsMVfjJIHD0eCVIaq4M81OPYfbzocpj0Afh0QOXPXSRPeVD8IjHBzM8HrHwVmNl98MPP/wPX2kPO+Se+fhYX/lIHrG8//77tw97bLz99tu385TpvAgUgSJQBJ4XAg/2wPUvLnwA54foEoj44PAhzA8X+nwE/UDmHDnWjJyz5sOMPf9CxDwHa+LNgQ7y7Dk3N+Ryzlr7zJVPe+fOsYNthj748DqIKXFlPmNXNql/rZInVq6lq8cBuvz1jkF8GQ97xDRH4uZ8yuSaeMw7+YllzlPm2ufgd+pBiQzDHj+S9/yIG9gf6a0efvYm/Yf+rp+ST6/woMx+UZc9fhg8apmTkzx0su/N9SjPPBfYIY9T8qkjPudQY9OPa6g55Bz87HcwyLtOGyvcZyxgJJ451wb56H/quraWyNpH7GW82DAn9S6h6GKfM5wjY1+db7CZNbGOp/LCj/rQ3djFpjwxEpv5i5f7Sc+NTRsT87TFnHrYJ7mX/SIfPL788svbpTG7x9rakovzzz777Hf9M+uDPtgpzxo/5+YJZsgycn7L+N//Q35im/yj2Igne8f5jFV7iUfO3Zeuvn/uQY1TDFynzK7XUhZMXENXGIFL1t6ap29zyfrQU6uzljEyT/vEnPZ3fZQ2kNdX8o2PnJg7qKcj6yfvZdIHe+ASuElbwLsEjh0BT/28aACPhmTgyyZnnY2adpDLQ4wNPrrIOLBj7DQBe8Sz0kVfGfUzRnnnUvxkU6NH88nL2LRJDMYrb1JsePBmvCmbuCXfuQfKNX4Td/mJwZE/5LGR+Gtj5mod3H9dKD1xNE7hYt1XNuidtJ91y36nhnlheW7sh1X/ocMvRsTHPnHoCx772W/eG6eoecz+kC/VF+uM1330/QuuvJdBPWurvl/VgtjEQR1il7eLSezdR9ec7Qls83M00EFeHWSNI/WsWfLOmRtn9tPUS5ncoz78OMzxnLz0h+0V7thMv/ld0B9UfPDtemXvkti0iX9rlj6ZG9vksz6nFtjNmJ0nLml75Q9Z8M8Y7ZNzaqCsfla44Rc/RyNjyzk64s58+tOmeLvGH3bmWMU3ZVwjO+WJhRhODXWVT3ynTW15H6gr33qyFsvkKXdEqaX2p1z2Ue6RJ/4y38xnZw8bxpn2Xub8QR64JOdvJvmhvEvgNiQ2c8D3IqLQgCuoKQcf2Qkka/WRt5mk8GZBjUWb+sEvewwayg8J9vFzlzF9YyNzyHnaTxyMKfczPzHwIZFyR02JnJirgy/tJK7Gk3Kzlu5xgYKfdox1YsF62tXGNVPzFh/WYCSe4GfviQNrcYRnzaEO7MyPFzWkFozVJYk+fjnn6OcZQAef+jVGaqZNfSvjGootZM1zUvNVh1imXfegxOcAD2JOm/rTRsau3qVUnLHJT54JbK3uBuJc9fWps6hexjjtkPfsjZTPObpiJja5D37n2ko95ys85p79qX+pctJL8kJn1W/agh7Flpjid95XaYf5JbGRn5inneyj5Du3jzM296CJm7bcd03OOSYGxiZNWebn5Dn7HR/WWHvYMR/oamRsR32PP22J6ypfeDP/Uz2Sca1ssi9/xpC6zIkT/+aFngNeruVb63lPgR9nM4d2k3c0F1NqnSP7KPnOj/aP7q9djtq9L32QBy7AA5RFJom7jh3g2GOPBrLgK5DZM5aMw9i0Y0GzudGTrxz2tGlOyCDrsKlXzanMKTp9I48fc8C287QlFjNGZNDhEKwG/MwhHwH5QUOG/FJ22gNDczceZVZ5uYcfDjwDfedTh/W0q41rpok5+VN/sIZSv08//fQF7vQKMvZiUuxYH+Sw8dNPP/2upl684Il9a5H4omsvYJMfa6++dZz+tYOcscgzdtdJiYX9HOin/dVceXDiYaJP4mVAiR/72e/qXUrB3h5d4bfKm7iRnePoA4EsceMrh77lkTc/5wx0selgri643RefFR76wnb6pi787HrikrzwYb31N+kuNvxnbZhTL3EnjtzH7iWxYT/zNi5szlq6lxSZlRz5enapnXN0Xc+4VzVAfhfjOXnOfsenZzDzcM7+jIu9jA28xF+9FQbqrPKFl35Ycz+cO3a4pz74EMMc9rS9dQ5GiQtz7wxtsc6BTNY891Zz7c297KO5x1r/q73d/bXDZWXjrryX/sCl6QCJhFcNdWmgNjH2ctBYXggUkQZagazcqpEp/GyAvACxn36NRZvGg4yxpD4xYf8uY/rGRuaQ87RPbOJgTO6vbLoHzQO2a0rlsTUPk3uJh/G4Zwzggj4/yky8kCVPddKGOvJeB5q9Zf7wwI2f3RBrLhQG9XGujjXDnnVZUf1C33vvvZtPPvnk9t/K4h8eD2Ue2tlL+mQ/zwM+8ZG8lF35h4dejt1ZUIb+cZD36oGLDLkTd8qrdwnFR9aK/LCbY+KD/KyJ8vMsEp/YIMMabHOwTpywnfbTRsaKDXQnBvoj7sQvfZ47X+GBLj6zF8yLPPiZOaIz8zoVw8x1yu9ig0+fOVjT84npKczVXVHym5gjt6rFSp/YqE3iBy9jUkZ916mzqwE6uxjPqcHs94mnMSXN2OEfxabe1IGPL/2vMJr5Y+OcQd6n+kk7M190887OGHc6+Eod5NDjbMJnPh/n2tXmEcV+9rOyYLbC1X3o7nyyN+8veNSSuInvIcdLf+AChJdh0nMbYSYLECtwJ0/7yAO2Iy9jZdgDWGzMkTJ5cC0gesakLnJcFrOZlMt41DlFZx76V09/rqH4h88gN2w4iJFGOxqJ6aopp25ilXsZW9qZOaQO8xmzGGQdlCPX12mAqZcXudtT1CD3xATMuPTyDHrJI4M+/yUuB+vsF3xg25ol3tj2XKGjHpQaph/0MgbtaJfYkc/hXurlnLyIwUGcPKy1Y+6575wY7dv07RzKIE7n6p5DZ2zoaDv1xYxcjSf3c55nKPnOyTfPNjbFOWUSM/krOs9hymDb2JN/yZzYrJV6effIS2pPJI85OZ2bF/KnsF7FtqqfvMR52r4kth2up3ARD3zZJ8x98LgvzRiJXfvwnSs76S7Gc/Kk3kdYTV+sjXUXmzmrS3zpQ773kja1yxp59Bjag54aq3N+pEMM+lnpHvUTehnzzg8yU4785lmb+jv74ECs5wxs0D+rYV+6R4xiIe+h6Et/4Gagq6Ll/jlzm3MCQtG8aCkiH0AGPuWj45w9D/1RXLNBPPQZh/rYzMLmXH/pH965Az1zttEyNmLIw8xeNiNxp2/jT//Y9b8lyTzlZ1Oil/9t1sTcPW0TC/ExmE8MlZsUm+Zgzspog3XO3b92CjbkPXGxJ+CL+Q4LH6Xuo+PYnRX2p097SR37xv7Pvkz7xO8ecXvxoj9jQXY3yEN5eybP5NQzLik6+OTO0I9rZBisnU97R2v0VgO+9cG/c/JwvtKDtzqLUxY8jXcVO37EbOrONZhkHv4vpyCXfqbeuWvyt/bokP+p2Kzd9HFJXuh6XvTrL43anbHBX/Hgg5F5IDNzuCQ28kvMsb/iwTcH9vlhUDN+1FHmdjP+DzERK4PYneeZCvHfTbX9O+aZv2RMrMQta28s2Gfu+ii27Ed8iIffNWzxTRFb8vcbg2/jQA4ZMZw5zrX2ko9v9Bn4MYb0yd5KV77xkLtz9Fd3BHzPJjaRn3Jp5zawxf/Z2cfmro9mDpn7dJH3F/HNM6c8dbHm1gH56Uv5c+iDPnDPCaAyRaAIHCPABcRfW/OwcxnwQPOyxgJyXhLOkfHS89L48ccff/e4Q9eP19Glhj77XKReRKz5YY1v/HIpzti8AL/66qvlpYkN9ZXFxupHuYkaNqb8vKCNW12wSRlynLErW3pdCNi7zykr+tXz/Jzi3sVKDa5lcLfkXXItec086D/uyecw+sB9DlVqjEXgQgR86KLGg5RH2/yY3PUyzt/Iscm/w/WvDYbpI9V1aRF4FQjMX3BmX2YM9C2/kL2qcUlsu5heZby7GI743CmX5EkNnvKYuex+uSYH7sL5C/RTyo2H6cznLt8AevCp103c+8AVidIiUASKQBEoAkWgCBSBq0CgD9yrKGOTKAJFoAgUgSJQBIpAERCBPnBForQIFIEiUASKQBEoAkXgKhDoA/cqytgkikARKAJFoAgUgSJQBESgD1yRKC0CRaAIFIEiUASKQBG4CgT6wL2KMjaJIlAEikARKAJFoAgUARHoA1ckSotAESgCRaAIFIEiUASuAoHbB+6vv/56059i0B5oD7QH2gPtgfZAe6A98Bx64NQrvA/cPu77y017oD3QHmgPtAfaA+2BZ9UDfeC2YZ9Vwz6H3xobY/+60R5oD7QH2gPtgcftgT5w+8DtA7c90B5oD7QH2gPtgfbAVfVAH7ht6Ktq6P7G/Li/MRf/4t8eaA+0B9oDT6EH+sDtA7cP3PZAe6A90B5oD7QH2gNX1QN94Lahr6qhn8JvjY2hf71oD7QH2gPtgfbA4/ZAH7h94PaB2x5oD7QH2gPtgfZAe+CqeqAP3Db0VTV0f2N+3N+Yi3/xbw+0B9oD7YGn0AN94PaB2wdue6A90B5oD7QH2gPtgavqgT5w29BX1dBP4bfGxtC/XrQH2gPtgfZAe+Bxe6AP3D5w+8BtD7QH2gPtgfZAe6A9cFU90AduG/qqGrq/MT/ub8zFv/i3B9oD7YH2wFPogT5w+8DtA7c90B5oD7QH2gPtgfbAVfVAH7ht6Ktq6KfwW2Nj6F8v2gPtgfZAe6A98Lg90AduH7h94LYH2gPtgfZAe6A90B64qh54JQ/cn3/++ebPf/7zzRtvvHEL3ueff37z0Ucf3c5/+OGHm7feeuvm22+/vSpg+5vb4/7mVvyLf3ugPdAeaA+0B17fHugD9xX9xsaDnkc+j30e9F9//fXtI19eD+HdDuEf//jHG35h4oc5vzDJK6Z3w7S4/X/c6Ct6yr4CG3utOP26PHOew+Lz//uoWBSL9sD9esB3Ezj6buJe5j7eYftKHrg75+Xfr+DFr/i1B9oD7YH2QHugPdAe+M8e6AP3Ff0Ft833n81XTIpJe6A90B5oD7QH2gMP0QN94PaBu/3z/kM0XG32ImsPtAfaA+2B9kB74KF7oA/cPnD7wG0PtAfaA+2B9kB7oD1wVT3QB24b+qoa+qF/I6z9/tWhPdAeaA+0B9oDT78H+sDtA7cP3PZAe6A90B5oD7QH2gNX1QN94Lahr6qh+1v10/+tujVqjdoD7YH2QHvgoXugD9w+cPvAbQ+0B9oD7YH2QHugPXBVPdAHbhv6qhr6oX8jrP3+1aE90B5oD7QH2gNPvwfOeuCeEup+ESgCRaAIFIEiUASKQBF4Lgj813MJtHEWgSJQBIpAESgCRaAIFIFzEOgD9xyUKlMEikARKAJFoAgUgSLwbBDoA/fZlKqBFoEiUASKQBEoAkWgCJyDQB+456BUmSJQBIpAESgCRaAIFIFng0AfuM+mVA20CBSBIlAEikARKAJF4BwE+sA9B6XKFIEiUASKQBEoAkWgCDwbBPrAfTalaqBFoAgUgSJQBIpAESgC5yDQB+45KFWmCDwBBL744oubN9988/AHmd34+OOPd1u3/O+///7mnXfeuYG+++67N998880tH8ra8d1339389ttvLl9QZHY+iOuDDz74nd5O9pdffvmdPxzgD/0jHfZzEPdOPuUy7xljynVeBIpAESgCzweBPnCfT60uivToMXCRoQo/GQSOHq8ESc2VYX7qMcx+PlR5DPogPHrgsocusqd8CB7x+GCGxyMW3mqs7H744Yf/4SvtYYfcMx8f6ysfySOW999///Zhj4233377dp4ynReBIlAEisDzQuDkAzc/NvlXHNL0ryp+5Py48hcRedD7DGzyIcwPl/aMjbj4SDny4556/mWImNCdw/3k4x/5/OjNvOeH1twnP+2emutXWzNeYnVvxodtMFAn5ZzrXwzhWz/2yFdZ98SHdeKB/Kw5sg5zmTruT5p+3dMGe/h6HUfWZ5U/NT+SsR9WuvDyQXj0wEWWM/DZZ5/dmsInP/xld9aG9ewlzgXyWWfmnmPklTFWcvvpp5+2j2Jj8swR3xEW2oXSqz5wWeOHn7uMvHum/8w3bcs3/9xjnrHNvVxrB/wceb5P1R/stDFjyRpq+76UvLwn0rcxgGXe3+ZCLNlns36n4jqqi753NtCdOKozMdMGOlkT+eRg/vImzW/NxGPKEtcutxmzuvCJe45pZ+7nmhyyHrk365r1FLcZG/aIif3cw4c6O6zBOWPHnzrpO2N0rhz0VF0yLvWhk89au+5lfu7Nnk6bOddG8piDDTa0lzXNGmReeVchkwM5bSXfeWIsD6rOrh+QyZog/5Dj8IFLEiYuSK4FJ4EkUICxCCSC3KmDeZQgMaz08WssgMnHmQEvi5gf7bSDXMaODS5cZBzY0Ye5zMLKRyfnrMFBLLR5LsUP9nJgS17Gpgw5GK+8STOmGW/KJm7Jd47/xG/irlzW6cgf8thI/LUxc0Vm1kHZa6ancj6Fy1Ev0jtpP+tGXaw1NczL2HNjP6z6Dx0ev8THPnHoCx772W9ekqeotZ79IV+qL9YZr/von/uIVOcc6llb9f2qFsQmDuoQu7ydT7F3H93MWT488D5nGAuy6GHTsYrdvXOovQUl9tU4x6cYGSv0aNB7+DuK35pNO6m701/FgSz/6QM1dBAD9rQpf0UTI+1PObDC5tH5t/ZZR+SJz7ONXWPa5Zi+9UdcO+z1m3pzrox9i13jNJ6Mbeq7RpZzjD3lM7dT50g70JUs9q3HxAef1iDt5Nw8k8f8CD9lweTIfsamzoqu8kLOWjKfcZoze85X+U/eyv+Kd1e9la3JO3zgpjDgkpzNw8cnP3Qpm3PkBSX5584F24ZXD5sUlZEHf4KlnIdH/dSBR4Gxl/qsydvBXu7Dxy66jGlzF7v2jii6M+c8CMRl/mnH+LJhcz8bPGNPGeYpN/dY2w/uEcuMl71Ze+NTL+ku5nPqkHaudU5PzLHD89Tj0H37bGLvucEf+LN2oIM+FP/GpU2psVk/fDDng2+vwGOuLD60p78VTfndWVAv7XGG8i+HyHgOiO1lDmLkZ94L+DDv9KccNMepszjrg27ioy1wwO85w1iQRc96sV7ZPsfmlJl3g/vzbjlVX2OduGlv0qP4T2GN7k5/FQd488sddufwXEx+rtPXxCXl7OHs9dy39rOOq95BL/2mndWcvHfY4/eUrYwNvDKHtE2sGX/GAjb+gUp9/KbvvNNSdzU/pw+mnjWYfNfm6VqaMcpb0SP7YLO6U6adXV7irg8xRH+lkzHbl8Rwl5G27qJ/pHP2A5eE+XDZyMwB5dNPP73lry4rE79PAjbFbGz4fnSxb3GhOSwcsWQBjE1ZY5TCx0f6NRZ1lDEO7DtnzzW+Lh3TN/qZQ87TduKAjTkyPzHwQZKyq6bOfTGXhy/tJAbGk3KJqXwoFxSYacdYJxasp920c61z8xYf1mAknuDn+RQD1uIIz5pDHdhBF+qghp4X+9g9KPr45Zdc9JinPj71a4zUTJvaUsY1FFvImuek5qsOsUy77kEzLvAg5rSpP21k7Gnnkrk4Y5OfPBPYYZ01MM5VX586i+SHXo6VHXiJRcrPedokTvXAT5ymzqXrFQbYSN+s9WndjEV/7J/CSFnoqufcP9pTdydj3PYncflDfHOA4+yBlMFO5mqfpoxz91LePeisvb5XvYn8Lse06dwcXSfFjmdt9qhyGVveO+yDj/1GbtpK3DJ3bSVv5UfejmIHG7uxwkefOx1jy317N3m7+ZH9xGZ3rrC7y0sdcJ01mGvsZP7kML/duxwmP+s7917G+uQDF1Btqjw88LhwSE5wWTvUAZz7DGyvipLNwgHA96oBlJtAZiEzxiwcvrHpMBbXUHyTq/O05eWBr0vH9I1+5pDztC1W5p17K5u5T+zGeuqDgS3zThvMwYx9hvEoYwzihg1lqCF8B7LEo07y1ZH3OtDsTfOHB2559iYWYs1ZZVAf58paM+x5dldUv9D33nvv5pNPPrn9iyz+4fFvV/mlN3tJn+xnffGJj+Sl7Mo/PPRy7M6CMvYiay9j+1xMkWFO3CmvjUsoPrSLHvnlvQBv4oP8rIk+51kkPrFBhjXY5mAtTuSKP9fqaCNjZY9aZizEL17YmPLp95L5xABdsdKfvIwH/5kvexOjozh28YNjYrSyge5KH17GSHz2kfFNe4nr3GNNLNpwnXmnDrLp071V7cEd3wzxVl66ytG9Sckvc5/7rolFv/BOxaZM6mgrc2Vu3eSv8HBPGytK3kd3qTorfPSpjHSVp3tZC3k7urM/5Vdyp/LiLqDXjDUxX8WY+SM774ysyYyPNf2CTtpZyd2Xd/jANdnVRQQgJkGCrG0MgBKw+waILf2krckTKKmyFoei52XhpYMdYs0fi0VeYODA9rTPHnaxr03ld7G7f0S1mTLYNx5oNqFy5kheztlbNb060qzzOR+MFRb60nfaZG+nw561Mh7xl8rf1cH9a6RZv+xlsRDvmbv78MHRPrfHlU+lU4N9AAAgAElEQVSb8nbUe4F/aoBffn788ccX9Zu9hx3jx79nl37mgTx7Qtmd/yM+Oc7cUp59/acf9dxLnUvmYpw6815gL/0w52c3Tp1FfHJ2cogpvsFj1x+pIx5QhzzX0FPxpOzRfN4NyGa/qksO/DjIJfES35RRdkXFJvdWeea+81V8q/p5zpJOv9TN+1z7k6aO527KsDb+WedV7TMm51Mv/a78JW/WJ/dyPr9Zq9jAMmPZ2VYOm+aQFP6s1fy+ZGzMrWP2/5RxvcLHGigDJf5VnsqszoB7k67sTxnWU841dDc8U8pmDVbnPfMnxykDlkf+qBX9/9Dj8IEL+Nk0zE2cBFZ77E/+JUWcCSfwuYdNY8mPCo0tH4Cdo0ujeamgvwI4C4eOhco4vvzyyxcXrg1sbMgRA+O+edsg+sjY8JHxs0d+DuLO3I3ffSh2ycV5ys+GRYb/1ry5Jebu3Rr634+UcsQ1MVRuUmyagzkrow3WOXf/2inYkPfExZ6AL+Y7LPiPkVIGHcfurLA/fdpL6tg3rIkx+zLt5x5xcz4Y6M9YkN2N/KcY9gx5aW/qGZcUHXxyT+nHNTIM1s6nvaM1eqsBX+zx7/ycuq3O4vQBnsabsdsfU361nv2hTMYuhvpS5i50dT+ueNiWb72zX5ifg5ExrjAhR3tBOXxNHrqpf079jE+70uwDeZOSN7ExiMU5NOOwLu4jn/Np1zUx4GOOtD335pr8+HEYGzHxn+ZAjQ/K2MWGnfmd1q7/qy2s7Qf3pIlR3gn43flEF7+eSW1B7QHjdm+FjzkqA13JuY8/7J87pv2MLb/N+LSm5MW5Xo2sGZiLjzVAZxfjzAtdfRJX2p6+p6771p01dSRf/BuXcpfQOz9wcUKgPmYtFMHIk+6a8ZxAV/bwReLY1Yf+sZn89GHh0En5lJngm6OAI4uufle23CPGu47Mm8LPhsG2fqAz7jzoxMD+lEk8sJEDn2lfe/JmTOLEPrI53EsMcz/niW3WSBvYn5dN6l/j3IuNnqC3oY6s6awJMtTY3vEBA66zN/GBXX2t9j3H+DQGqHNrtIpDu/jGjrbMg7pab2Xdm9QHLjGKx0qHvH342L/TL7bZI2b8i6d0+j5aE4PnQ4pdhzxicOBTvnT6Ngd1dlT9PH/ykp7SX8kmjzxfxtjVYmWfHiOGVW9lnc+Ja+KLDrzJZ21va3fKnVM/49OGFN15ztyT2uPkbiz2OvoOecrAJ9asG/PUQYZ19qP2JhbyV5T8+GEYB3adG0PaPIoNW9R5xps62F4Nz7l74Kd/eStKvMpJ8cdPYqou/DnMN/naSup+4ibviE77GRtzfYCB+Ozywo/yUORyEJv7yXe+yh+c0Mk7T3mpOWhbeWtuHOZA/Vb4a+8UPXzgnlLufhEoAg+PAIeffw6Qh90PQF4meUk45wJBj+GlwT8ngM/awcXDRcLP6vJSn30+iF5E6rAmFvx62WZsXmxfffXV0j521Fc2L8GcK2fsUmykHPOZi3GrAzYpAyboZezKlr4+CNCDnDn6+akNepY+9Vw/pfiecmx3wemp9gC5POXY7oL1Q+j0gfsQqNZmESgCRaAIFIEiUASKwKMh0Afuo0Ffx0WgCBSBIlAEikARKAIPgUAfuA+Bam0WgSJQBIpAESgCRaAIPBoCfeA+GvR1XASKQBEoAkWgCBSBIvAQCPSB+xCo1mYRKAJFoAgUgSJQBIrAoyHQB+6jQV/HRaAIFIEiUASKQBEoAg+BQB+4D4FqbRaBIlAEikARKAJFoAg8GgJ94D4a9HVcBIpAESgCRaAIFIEi8BAI3D5wf/3115v+FIP2QHugPdAeaA+0B9oD7YHn0AOnHsV94PZx319u2gPtgfZAe6A90B5oDzyrHugDtw37rBr2OfzW2Bj71432QHugPdAeaA88bg/0gdsHbh+47YH2QHugPdAeaA+0B66qB/rAbUNfVUP3N+bH/Y25+Bf/9kB7oD3QHngKPdAHbh+4feC2B9oD7YH2QHugPdAeuKoe6AO3DX1VDf0UfmtsDP3rRXugPdAeaA+0Bx63B/rA7QO3D9z2QHugPdAeaA+0B9oDV9UDfeC2oa+qofsb88P+xvz111/f/PnPf37RM3/84x9v4K1w//zzz29+/vnn5d6U/+ijj86SU+/bb7+94ce1ce38/fDDD7+LGz10zvGLnz/84Q+3/sh958NYSh+2B4tv8W0PtAfO6YE+cF/TBy4f6nM+7uc0UWVen8vGh6Q13z1weQTSY2+88cb2B13tIOvjcaXjnvLz8WxcR4/PqeOjVZs7yuP4T3/60+0DFxtvvfXW7x7XO73yX59z0Vq31u2Bp9cD93rgctnPjxEfAwrNXz34EOS+H5j54ePjdJfmmH/F4YOp//zA4lf78H3Y5Zz9f/7zn7dy8yP2t7/97YU+e/pAh1y0pw9zZ41sfsiVwc7Uc+8cir4fc3MFb3Xxm7gypxbuJ909DrSL7MRq9zjQT9YCfXI13sSQubLOM7Y5Tzu5pw14OU+Zzu9/AdkrYgnW8FxLqdOK735Szkueqdxzng9c5Hlw4jvvlzm337A99+ZaP57dub9aq3MJFRP9uIbCw1bOycE8wHTiwJk/58E9z5x4//3vf39RO/BEbpdPns+cK29O2pZfev9zVwyfFoZ5Dq0N/e954gxwntyTIgPfM+I5Yu0cWc48Ppxz9rWR5zTn7u8ovvluz334xpN7xsDdR2y5t5pzbyGb+U25nZ1zdLWFrHeivB299wMXZxg3QNcUx2TTOYH99a9/vdWxCXZJp95qTmH4YQ8bWSTWxMBP2ie+lFs91IzLXNI3e8nPxlMOXvKnT2LmA50y6p5LyWkWGXvyZpzYxW/Gri+xUlc+sjSr68Qq5+4nbtnk+M2DhR9rgpwxwfdQazMpcqv9meusedro/H4filmDrJ/YUu+//OUvN//4xz+2D0tqZL8hTw3VX9GUp89nH3Ce6DH8Tv3ZH3PfXoRPLNjKeJjDY2/q3mdNHp7ZmQ/8aRv/njvPCrHLm/KuiT/PcZ4/ZaDeA8nLedZa/+67Ju7Ezv3S+5274ve08Mv7aFcbzhPnwn3PCOfIM7I7U0ff3vQ95fS1ot43cw8bxpN73gfsMc+9OUfGXDK/lCP/lZ1zdNPOxDX35vxeD9w0ZpAmwOP21F8WuLCRAeC0de4cfX7Qx85Kj2YwJvbnh8OipK65rOJiT37OUx8f6RM54lSGmLAxY3H/HLoqsnigfxQb+4kLtlaxwEt+YvV/2zt7Ht2KKwvPTzG/xhI/wZYgdgChEzInJI4InCHZCcgZMQ5xiDMTQmaITGYR3tHTMw9abFedc97uvh/dd5X0zq7atT/X3lWn+o7Hc/ZRzSYnLh4ImZd2U459+SnrPGOWBwVL8pU345Zf+mo+EuDvGbmCOf2R9VvpUHs/FtwtrJWDzx/N8Fb9szsL6udZtVczHj9Mt+Sk7SNqn+KT85Syma985aDyoGdnkbg5Z6mzwgkcEteUZ350Vr1D5lmcNrp+NWewOL9cnFfnZ2LOmfDOYs8zkuco58ho17tBm8hxtrCHHfneCa53VLl5dyCv3Z3u9LmT09bMSXns4Mv1iu50UzbzT/5q/igPXBzy0eGnE9dJvTz5eCQ/m0D9K5RiYcemWOngU0DwYwzK5r55KK+MFH/5kKZY6GPXPXj8iAs9fVpYbJvvUdz63NG0owx29bP7qBtv5q0+FP5OJnXAwRoynwcnG1UMzJsY04d8/K/yMj78YJc1+TmfOqy1r27p41z41nLiSU2tI3NqY39Mmr2BHXonH5TTNmvriaz9A9945GFn9iK8GcNc6xPd/BdczyiUvsLPqt/Vv0rJx5zEK3UnRuwRM7Ipx/zsget5SD19J2/lM/enjucOzMSc+M5qmTY7f5xzWRxfD455jrMG3BecJ3l5RvKcrc7U999/f3c3cL7UR441ZyvvANbpR/lJr/5voDI2bXDHZizyV9S77OwO4A5d2Vz5X/mB593vd2cl9+AHLsb9WGTA8PwQwHedQVB0ZPyI5N6VOfr8Z152YGHDxmAuIGk79+UbbzbSise+Fzu65IE95uyZs3LQbMb75o194pmFzebPuXlBiU8csJF7zD0wK5nE6uyjOhsVe/YJeZu78RiHeYkfOspQZ/gpS7zqJF8deaWP8wGwLyae1IW9yV+t8wHJPmeIOq5k5WU98cWaPWrPXB4x2Fvq7s6C+3kOiCXj0xYyzOnrlNfGLRQf2kWP2PNegDfPD/J516S/eRaJz7OGHGvxUi/xzDPvftow1tTR7nffffeL2MnlrJb6KH2cM1kcXx+Onh363jrAy7OijPt5tlOOfc7dy3jgTj/GMilyxJB87tTJy/2ce5ed3QE7ucQm7e7m+Ensp9yDHrhcfFykqw8b/PnAJXgu6fkfxL4K/gweW176JLlKdBaMQmW8+TFL++TmxQ5NHeUmuKmjDFQ7yTviT7nVeuZBfOSq7IwNPvjYeBMX9cCTDyZrfKTNxGp+VNWXHjVq1i3tzBy0JZ0xi0HaQxa5VS9op/T+H4RdjajFVVytOTXCHvWzL3c2qCmy7KPHmh7DLz8fdFD22dMW5y8fYvjjbsp959jyvBKTdpwbJz6cq3uFeiemrLaTJ57kbDy5n3PxTF7OyRcZedgkftbzj0ZlVjT9YIMaTLn74jLtdH3/M1rsXh12ni2o94pna1eH/DbuzhTnP89XfnvzPsBXyq18Gttqb/KIbcbPWfc+mvJzjW7mN/ddmx+25UGv6Kb8WW4PeuASTH5YmAsEoK/2bILcm4BmAkfzmRw2py3iMCZs8TFxPQvnBwsb2oJHc+3isCDo+PEirvxvZEBmpZ+Nuto/4pGDzSGmaY+4Ewv28qOeuPCfX9QWfH74xoaxT6zyYK7iFBf35h818okLf9rXt/tJxRieObuvDdY5d7/0cS596jRrtOId4U1vUEt7mFp69nZ6WVN0WXuO0ZFHLKyxCY8ffZ+9PH0YvxQdbHMHmKtr7Rv7tHW2zphTFr4Y4N/5FWzOziJ+OGer2PPOyHhWc88qe8QrNimbsSe/88c5f8Xx9ePIOfIscQb4seZMXDlP+W30TKnvmcr7yj1rn3+Uepe6t6LEZbzuc07l5X9LVMam7PQvf0WxmzbQhYcsd5k65EBcrqWpKy8p9vwvKWAu9imT85f2wMUJxfMha5IWTj4JZUC3zAEsQdNfAgcAucY+PvWf/uQBvnahrN2DJqjYhrfTSdn0xfzKYZg6rvU7fbsPzhnz9JW4MFd2yqUdbUNXmOT+bFRrgx97QXn3jrBSFl1jTTvaYI/GV770cT8IXirgmphTu6tYo4e8/40HnDH67Eg/e4O6T3/ysvbeNZyVjFs/+PVxiD3kZt8iyx79jg9ihyfV1hVKDPauFLvqyss7EZ/ypdO3OWhnR9VP7OQl3enDxzey2Eis1SHes1oqW/q4Z7N4vho88xznWfRs5FniPMy6zDtGvXmmdt/efJOs7E9/GaN7ydM/ca/ONDzuRnWPKPFkfnm3MxebXdypu/JDLOCkncxjJf+gB+7KYHmv5pAV5+L8OnrAC+YxfeclmHbx5UWWFyLzfKShIw+dtNF5z0l7oD3w3HuAh6F3pXSXMw/ns4fhTjf/YU0/3N9H8ru9I77/OKEP6H1i7gP3Lf3/ZHbUXN3rB6E90B5oD7QH2gPtgafcA33g9oG7/evrKTd2Y+/F3B5oD7QH2gPtgbe3B/rA7QO3D9z2QHugPdAeaA+0B9oDz6oH+sBtQz+rhu5f62/vX+utfWvfHmgPtAfaA/ZAH7h94PaB2x5oD7QH2gPtgfZAe+BZ9UAfuG3oZ9XQ/uVW2r/i2wPtgfZAe6A98Pb2QB+4feD2gdseaA+0B9oD7YH2QHvgWfXApQfumVD3i0ARKAJFoAgUgSJQBIrAU0Hgf55KoI2zCBSBIlAEikARKAJFoAhcQaAP3CsoVaYIFIEiUASKQBEoAkXgySDQB+6TKVUDLQJFoAgUgSJQBIpAEbiCQB+4V1CqTBEoAkWgCBSBIlAEisCTQaAP3CdTqgZaBIpAESgCRaAIFIEicAWBPnCvoFSZIlAEikARKAJFoAgUgSeDQB+4T6ZUDbQIFIEiUASKQBEoAkXgCgJ94F5BqTJFoAgUgSJQBIpAESgCTwaBPnCfTKkaaBF4+Qh8/fXXLz766KOfHb3//vsv4K3GF1988eKnn35abf0X75NPPvkv3hHj22+/fcHPYVw7fz/++OMv4kYPnSt+8fPee+/d+SP3nQ9jKS0CRaAIFIE3H4HTBy4fiHfeeefux8cuBx8CPgju88HLwQeGvd0HMmVX8/mRw9e77777iw8f8U2/GVN+rIifeKYNffORzByxa25SP5jITp75yofe94M5fes3Y00/Myf8qjPjYs8BPtpJrLAnHzox/vDDD1+AQQ7l0c1hLjPGlMm5dqAObcDLh4/7pfdDYJ7hxH41tw+owaeffnqTU/pxdxfkOTGmNI5eyuSec/S0z9xY3d9R+ph+tq9++OGHF/zuM4hR3KZ/+dAc8rl78kyJA/t5ZlN3zsF4+kUGu+Y3dXKNLv7yrBKHMULFOPUeOrcG2mGdPo3Jfaj7q3i8+1J+N8+7DFvala76zm8JMokr87w7s57638UGP78/yq+oflZ78lZ9wN6qR8wV6sgc3c9clZt0ZV+ZxGb2OzJHutqQEgu1OxrZ98zPcsI/uWb/az/vCHk7CvbYyqHtVd7IWVOxRs4hD5o9Ne8I1ox5ZrUDNY5Vju7vekc7aT9lM4edfW1cqZ+y96WHD1wCT2AT3ExEmUw0gV9dQFcCxgc/RzZG2p9+bSxknGPjm2++uTOF/Ap889VfUuLwX3k8KOznPOWZE+99cycW4meYKzE78Ju2vZjdT8re6pLWLrITK3NNO8z1k7WAD87GS+weQubKOp82c512kq8NeDlPmc4fjoC9oiWwhjcHdVrxpxxrzo79sNqHl/2JPB8TfHu3rKj9hu3VfvL0i23OUe7t5urcQsVEP66h8Bg5JwfzAFNxgMfc88D8aCBvHpwzh3Gwp3/3Js3zmXNsm8fUeYw1cRFf3m/TLjjwc4iLayk4iYO8HSUnZI/uk3nPastvCev8lpDL7tF1Fht2iOXKIH9iXw335r49BX/2iHbIN/fkQxP/5Dvf9aD7ULBZ3QW72FI35+TAb4fX1b7PnDxv6Ye5trLOUybXxpa22cc+ecJ3nnq73kGHn0NdMcNezpHL84pd1+nbM249sGHsux4wBu2xBhfXn3/++c/11b46SfWzq1/KPmR++sA1cChBuQZk1rsASc4k1Lk1UArDj4E9C+GaGPhlMfCVcquHGvvEnXHZXNhbDRqDHwO9zBv/2YDqY2vFd/+IrmzayOiRQ8YPLxs5bWNrFcvMI7HKubYSN/IXZ/wi7yBna5I4w9/hiy7xrPZnrshoX5+lj4PArEHWTw/U++OPP37x1Vdf/XzGPevS7Dfk7RVtTJryXsIp88EHH9z1GH7nmP0x97NXiGV+ZNGHx95jDu+MVd97l6Q//HvuPJvixt5RfOSI7Dwbrs/0iSNrnTGf4Zs53DrXj7nv9MWF/dmjqUO+4pD8OUfGfKGsVwNcifFoaAcZ67aSP4oNH/QEts4GPuhXfqthPrPHyIUY7ImVLjz2Z85n9UFv14Ppx9iSp+6V2JC1H8+wJp6jvp85TbzwZX9iK3twxu+amIgPW2nPmJHTLzTHUT4pZxzK27vaTVnnxqIu/MyN9ZX6aS/pzNU94lr1s1gYv/Ivgx4+cNMhyfPxsijMacjPPvvs54euQAOcr3oSJJH7DHxh/+gvpzysFix95b58CgIfeYcNIJUvTX762RURvNK+dq7Slb6NgY2cp03zyryJfT48zAE/jtTJg+B+0ryoVgcr40gcVnlplwubXjFWMZ86rLWvbun9EbCHxX1HreOt2NMf+Dga2kSOurN2oM9jGh50jt1ZUC57HFvcJ5mjZ8F7Cv/2njZupWKKTX7zos/zo+3sa3LNuIkx1+okNY+VHHnzOxrWQBnsYBO9xMv9x6T44M5ZjYwdXOc9MXXEYfJ361UtkCX/7MOdfuKGjljNmqO/is3+kO78qG9dzmLb9TB62FgN4lvtnX0PtGV+KxvIiA2UWs5xFNuUvYJX9k7q229QBhR73g2r+K9igL3VHWKfsZc9Y1z4FB9l3Uuq7sRK7FOWed6PMwdjUUcbq/yVmZRYwW6Os/qc7U9791lfeuAm8DqxEEkBnAFo6OQlr94tlKbDPvZ2I4tscVI2981jFo81uoyVL/LwIGgbeXOf9lZxqHeVZkzqYNdGyqZ1H0q++p9xub+TSaw86OS4+gMjD6D+oAxiTB/y2Vvldaf0//+rDuwy7J2VDja0r27p4yBgLac1amodvZjs/0mzN7DD2aGeR8N6+qFhzTAee2p1FuHNGOZa39jngWQ8nnfvLPys+l39q5T4zUm8UndixB4xI8tAN88vOOQ6bTkXq5UcefM7GsarDHasuTziM0Z5j0GJbffAzXyQoz55T+Q+sYjD1bhWtdDGLld82mM7P/SUfaaMdl2bNxRf5uX+pPbrtDPlWCs792Zv5f4q5iNbqcvcuGZNphzrFe5HsU0bV/ACV35zEF/ig63sf3ps1n4+DqfNXGM77bNnz6Sf1Mk5uqteICbjmliJfdqRB2Wgo3/s0MOsHcpfqR86ymtfO2AOhkd28L/KURuPQQ8fuBxOAlg1osCQmECREGB58JPOYl8J3uYUrJUO/hLE6YfYbYjUR47fKl7y8FBYwKmbPsEpfWg7dW6dY3/VNF6Y06f2jWvi4r41ZT3jTKzODvOqJ/QBNY4ph8/dSP/IgKl5mjf8GffOXvm3I7Dqd6xYzysW8wGJPGcp67eyQb/a79SdNXr2oTzj28WDXJ7f6SvtaAsZ9TKOqXtljR3uvRzmkbz0w5xfjtnjnoOUmXPzWWFDDPyOxtWzmrEf2btlb4UR+uBJXA5wmPfEjFsc1DmjUx/5if+RjZ0sccxazNjyG+l86uibOJWRrmJXnrhWg/pNH0ePEWpwdn71Y37TvvtJV3GseKmT89kbued81/cTtylH/MSSw7soebv57AliBRvH3JcvFUfXxMLvyIZnQx16BL9HgziyVvpN3k5/Zx+bV/rlSv12vq/yDx+4BEoSCaqG4fshAQzWNA1FYD5/2Lp1ZNMBxqpY+MtiMM9458fWGIhnFdPkrS7e6ZNiZmzgkGt93kJnHjaeNqZP+Pi0sWaM6mU++EDOkVidHeZ5QWgDmnVLOzOH1GE+YxaDtKfcQ/Gdvrv+PwR2NaIWV4c1p0bYo3725c4GtUeWgR5regy//PI+YZ89B2eW/9YDefjjbnLkmcaWa2JSx7lx4sO5dq5Q78SU1XbyxJOcjWfuJyZXMLR22k578wzlnnPrxlpb7iVdxZv795kTH/7nwFf6M67MMXFCX5lpa7emB2at4dEDV8aMUR1sThtHsc2+1s6KHtlRPnGTBwWvxA/sZ5wpv7OTMs6NK+27N+kK4xnb1Mn1Fbx2fT9zmrVa1TTPR8axmk998AAbx9yXL807A70ZL3LYzN4nV77hDLBhfTTYnzldrd/OPnES05VxpX5X7BzJHD5wacD8sDC3cUlit6dDi0Qi9xmzOfE3bc0DgU9jpFjO8c8eAxsrW+zNRrKJ7hT//3+gPz+g2kZkdWGm/pU5fj0Q4IC/jA1/iQV7GVPiwn+OWVvw+TGwQayMidVs/Duh+B8zxy+//PJuN23CsOG1r+8w9fM0cTVnN9HLHJy7X/o4CIDrrNGKd+SN3qCW9jC1zPOx0s36oss6z648645NePzo+9l36cP4pehgmzvAXF1r39jTzpV5xpzy8MUA/8532JiPcRhn2pxz81vFgB9+R8Ozigw29Em8Dua5lv9QSmzzgSsG0x9r7zr05r44XI1p3mXorXg8HsTQ+iGb35L8vyIHz5RD9ig28sDvlTHtUCt4OfC/Gshmj+R8yluDyd+tjSttkpexJR4rjGdsOz/wJ174mL1AvayZtohhyrGX8dBfU+/sm6h9KNgn/vgUE3zbM8w9Z7N37AXiSNz0Aw8Z7E7c07fyUL7T1kLd3J92ci/nO/t5RlI+85QPzxzhgTk8hv2cuKl3Cz184N5iqLJFoAg8fQS84B6SiRdvPkJWF3T68EKDt7sMUyZ1nXPR8+HI37yIvUDVIa6UwQf6xq5caRHwgfKmIcGZnY+xNyVGYlv9N5+8jPjm2X4ZPh7bJti8qbV7rFztgdeRZx+4j1XF2ikCzwCBx3jgThh2/wKBLx+j+XG67wN3+u26CICAPSa97x8vr+oD7R+IxivdVRN5ztKrGPeJLf+AvCXG1R+sRzV4lX+AkJN1kYLNrQM7r6p2t8aG/KwBZ+eoBisf4PK68uwDd1WR8opAESgCRaAIFIEiUASeLAJ94D7Z0jXwIlAEikARKAJFoAgUgRUCfeCuUCmvCBSBIlAEikARKAJF4Mki0Afuky1dAy8CRaAIFIEiUASKQBFYIdAH7gqV8opAESgCRaAIFIEiUASeLAJ94D7Z0jXwIlAEikARKAJFoAgUgRUCfeCuUCmvCBSBIlAEikARKAJF4MkicPfA/c9//vOiv2LQHmgPtAfaA+2B9kB7oD3wFHrg7OXdB24f9/3jpj3QHmgPtAfaA+2B9sCT6oE+cNuwT6phn8JfjY2x/7rRHmgPtAfaA+2B19sDfeD2gdsHbnugPdAeaA+0B9oD7YFn1QN94Lahn1VD9y/m1/sXc/Ev/u2B9kB7oD3wJvRAH7h94PaB2x5oD7QH2gPtgfZAe+BZ9UAfuG3oZ9XQb8JfjY2h/3rRHmgPtAfaA+2B19sDfeD2gdsHbnugPdAeaA+0B9oD7YFn1QN94Lahn1VD9y/m1/sXc/Ev/u2B9kB7oD3wJvRAH7hv6QP397///Ys//vGPfdy+pShGsc8AABsvSURBVPW/7+Xz97///QW9o/5vf/vbF/BcS//973/fyf3qV796sfuhqzw2+aG3kndP+b/+9a93sq6NC315k06d3/zmNy/++c9/buXV/9e//vXid7/73Z0sNn79619f0lO/tB/79kB7oD3w6nvgwQ9cHkl+kPKDRTHnR46PA3yoOlD592kAdOfHb/omLj5S2kde/6sPIh+zlEdPeah2oNqaPhKX1OGDqq0rH9f0lfOJ4XysEr9+oPOjTNzqpJxzfWUeWSfsKQtlD5/gwHr6y7zZT3zNZeoYw6Tp1z1tsPcQXLVX+n+X0TzDif1qbo9Qgz/96U+/OCtnmNJrq8cyennGjSntXXngoqd95saadlZzetUHLvvffffd3W8le8bzvgC76T/xTDvy5x0jDuxjN3V2czBOv9MG650ufHTx51nNM2+c7h3Zuc8evvNse9fgN/naNh5rDl8eVLkzuvoeoGPuK/1dbMRiDKuaed+uMGQPuyt/k5d1pqb6TJq4pP7UzZ5VP3XBXn7aYU7NsDf5qzV4Zh0TQ+3nvjbcg2Zvu7+rn/vSec7lT5r5rLAhDnWIl1rCSz33Vzz3ku5i0/Yq79RnP3sKe+IGP2WZI+9+1po9c5o6qzWy+Frtkbs+oDMHdKndSvcq70EP3ATBQE1GEORnAlNvJnY1eOTQpcnmxQzP5oGyRh45+Tlnz8uHg2Ue8slnzlNfH8ahD3Ty95e//OXn9fSTcmdz8tYXlPyyUYk/G9PczuySJ/+ypdwuj9W/fqH7j3/8406X+DIe9hJT7SMnDs7dW1HiMe/c1wa8nKdM57/sxfvgQR95lsQ6+0yb1GnFdz/prjdSBp/WHXkuPuqc98ucK0/fzb251he26du5v1qrcwsVE/24hsLDVs7JwTzAVBzgMfc8ZE1W8SBvDpwzZbTBOufuJ83zmfOUYU5Mk/fQNTWk3mKEPe8a5tQs98Rl+hVL7J3FSR3AbHefgAH708dRbH/729/u7kHrZzzonOFPjsSy8idvV2f3ocSNr/QN35jICZnUyXnqglHe8ylnv53hjI5nLmuYtpjv7OxiPatf2scv8c4+ShnyNqfk51xs5e3skQu2djmpD93FBp8ckcGP89R1Tt9kLIkzMeeamMhV3UmNffLnWqxW331ksbOrnbpn/T59zvWDHrhpzAvIgAkwAU1ZEjsqRsqezW2oeVjzEGIDn0m1C4AzFngWhcLngw89baOXfi2YF4U+dnTleyc7+eSdvtknVhuV+GdeyIgDOVirtJ0P16M8Ui71ndsPridW8hNreMbnftJdzNi2Xto4spM2O3/4o3diCPar3ptyrunZrJ/8pJ45eNwtrN2nT//85z/f8VZ1350F9fMcEMv8Fx/PwS05afuIEis/fO7umNRXDqqu+2c5ImcemW/ihQ3OozYnvXJW097Uf8iaevOgJfeVHe/SVY4reXjZUzsZ+DNvdemHK/ka2/SR99ZZ/agZ8tiadub6DIOzvNnPHkn78LEPj/mZrdmnaWvOqe2uvjs7xHJ2Llf1m75Z4/vsuya2K/2JR2K1kod3pX92saX9HT7ogg9nZ5db9t5R7bHF3Ygt5Fif/bLHU1Ycj2rH3pV+T7tz/mgPXMDmw2OD+hHiw8M8m4xiwPM3g7plPZtK3fQnmFJloKuCpu4KZPezeNomNz8U5keM6dO5dlzfQrO51ctGzbn7UC+kVd7s54GbeaSd3WFRBjt5COwPe0E543G9yss9DheYi6uxTh3W0642Ss8vpYnR7APxn5QzgO6t2HNn4GP6zbU2kZu9hT7/MoYMNPWYo0PfTL5r+sU5tvjDPHPzbGsD//aeerdSMcUmP+6CtLG6G7KvyTXjJsZcpy3n5qHc1HFf+UmtgXzsoOMa7OZD3b2HUOzmb2XL2MB13hMreexZz9V+8la1sP7SlJ9zY0u+9ZdnPPaeNWLf/pCqs6PWMW0oe3YWkJu9lbrZp+SODyjnJffUYe8KRshbY3Wl8HffG/LJs6pO0lX9ct/5kR9lxNZ1UvxkT5m78RFryjO/BZuJAfasMX2TvvWTOU19ZYjBc+zZIRfizviQwd8RBtqUEtMqb3j6wI95qAe92u+pM+cPfuCSrAXMIOH5L7jwXWcAJrm6AFLuaI7tlb62Bc8iIpv2Voc5D8QK5Ny3SMSBj8RAP7PI4uH+fSg2bEr1yRlfrHPuPlSsVnmvbKZu5r07LMof5ehByXhSj33ysK+MeR5ifJDnjJu1Ototvf1hu8KM2oDt3KNesx+njGsuUermmks41/KTZj3xZQzWWh4x5KWMjd1Z0D42nBNLxqctZJhzBlJevVsoPrSLHrFjN23kWYOPPHrKkH/GQd6uoZ4d5aHWTrnUyX3macNYswbKYIM5GBMzubB+jN+Ml/wTg/RBvvhmf94TE0vjnfmkvZyn/qyV2KT8nBtb8s3Nvjd2ZbBLfInp9K3spNq2zu7Ld72js7eQUzdtIpf5gz0xpl32Uyb35nxX38Rg6sx11sq9Fc+9pPg/+66JQ+oxh5/YrORmX6J3CzYzNrC2f2YtsJ11PMqNuK3bjJE98INiz1ydsz76ZYxncvhJGXQnL/evzB/0wPVSWzUQhxoQKDSBsga8GZQAWqi5f7YWePzsZLPZZkMRu8VVP/OxMdyDmlfy9DFtIQMv80v7aeOWOXnPnIlVP9BVLOjhhxycszb+oxgy7nnYVnoTa2Xwpe+0yf5Ohz1kMydxlWofG0d2lCs9vpxW+Oz6xHqudCYvH5DsZd9OWdd55qg3a88mVJ7x7eJBjnsIHW0nTTvaYl+9jCP1rs6xw12Y8uaRvPTDnF/uzx7fnffUMZ/EJs8JNjhjqZPzo7NKXnM/de8zFyvwyl/GrF3xMAd03dvFdeUOw0bqU4eMhflRP6FvbMYjzZrRA9mT1GjlC39ZP20lXdWZ/VWfpZ5z/E4f6maMM6/MR1tTRv6KYjvtK5P4y9vRleyKt9Jf5TjlxHbyV7GTe8oRR/Yle1Mm5XM+Y5txzH10Z5+6TrvOjWPG6LmGr770Cq7o0xf62VH95P6Kl/tX5g964AIKyQL2dAbfg89hYS0g/h9aeRlxoFY2ps3V2ovgSD+BQj5l58cWH8bJ3BjT9zz87OljVcz0CWbpP+3eMk+b6GETHLVBHMTkGsra+OYl5gFJ+TnPOl35OHhopp2MLe3MHKbejFkM5uWC3Mx92ur69sctmO1qtDoTO4ytOTXCHvWzL3c62Xvoseac4pefly6Uffa0RR/y33wgD3/5x3b2KbZcE5M6zo0TH871c4V6J6astpMnnuBjPHM/MbmCobXTNvamDe7D9JNz6wZPW+4T4ypO9x+DznOeNvVvXLscUyfzSf6c0wO7Wl/J2dimXWzSR/BzznqlM/t62nO9woA9MKHeyu0oMolf6mJbPe3JW9VnlYf6k670kbmCsbayn+Ud1U8ZKP7PekJsU485WIiDe5O3sn01txnbvDPmvjFIz/aNY9beGmsHusMgZZxfvSdXfq72u75W9EEPXBonPyzMCVRHgOa+B1lw5PsBUedWij9tSfFFoVivPigZ98rf6kBoO+MlF/k0kLaY49c9c5989lcHUjtHNPNe5cgB0D/UBtbmbGT2p8yMV11o5mceRzFlL+A7bbl3BQuwNC9xxZY22JsXTfrq/H4PW3Hz/E7MZ02VX1Fqhfwf/vCHuz6gz+jXlay87A3Pt3tQeVl7PwL0ZcatHn796GAfudXZZ49+xwexoy/V1hVKDPauFLvqyss7Bp/ypfo2P/jErp0dFYOUvdUGvvGX9cCfOO58PwafevHTlnhAk89+4qY8uaaO/DO66gl1rAXrxCT9GJv4u4e8dqDUxT11cp+csjdyL+f6WdUZGylLDCte6iKP3ykHP/snsdAHvBXf/aTkPPPe8fxDjH0xg6Y950f1UwaKrexjcUyZFU8MUs45vo1PXtJbsMnYtKHt7L3VP9rN3LLX8g7CLnXW7qrmKwyMZ1L0wUe+sRFPviFWfuBlv3sHY8t8sT17VV/Qs/E/CKRC5w97IBS/4veUe+CWy22Xpx8EL1Yuu7wEV3peaOxx8bFOOXnEl/yc56XuBT4/MPOiJa6UwS+6xp72O3+7z/bRh/ZN7Q36+ezsvWmxc0bzTL6s+MBl3jMvy9dj2n0V2Nw33lcdWx+4J/8h6fsWsnpv98eu9W/92wPtgfZAe6A98Pp6oA/cPnC3/+LVg/n6DmaxL/btgfZAe6A90B64fw/0gdsHbh+47YH2QHugPdAeaA+0B55VD/SB24Z+Vg3dv3bv/9dusSt27YH2QHugPfBceqAP3D5w+8BtD7QH2gPtgfZAe6A98Kx6oA/cNvSzaujn8pdn8+i/orQH2gPtgfZAe+D+PdAHbh+4feC2B9oD7YH2QHugPdAeeFY90AduG/pZNXT/2r3/X7vFrti1B9oD7YH2wHPpgUsP3DOh7heBIlAEikARKAJFoAgUgaeCwN3/J7OnEmzjLAJFoAgUgSJQBIpAESgCZwj0gXuGUPeLQBEoAkWgCBSBIlAEnhQCfeA+qXI12CJQBIpAESgCRaAIFIEzBPrAPUOo+0WgCBSBIlAEikARKAJPCoE+cJ9UuRpsESgCRaAIFIEiUASKwBkCfeCeIdT9IlAEikARKAJFoAgUgSeFQB+4T6pcDbYIFIEiUASKQBEoAkXgDIE+cM8Q6n4ReCYIfPLJJ88kk6ZRBIpAESgCReAYgT5wj/HpbhF4YxD44osvXrzzzjuHP2R24+yB++2337547733XkDff//9F19//fWdKShrxzfffPPip59+cvkzRWbng7g++uijX+jtZH/88cdf+MMB/tA/0mE/B3Hv5FMu854xplznRaAIFIEi8HQQ6AP36dTqpkiPHgM3GarwG4PA0eOVIKm5MszPHsPs50OVx6APwqMHLnvoInvmQ/CIxwczPB6x8FZjZffjjz/+L19pDzvknvn4WF/5SB6xfPjhh3cPe2y8++67d/OU6bwIFIEiUASeFgKHD1wu+/kB42PA4F89+BDkvh9XPjLJ50OWH55bIMLmSh978PGjX+zC9yOdc/b4MCPrvxCl3spHxpl+0P/qq6/utvnIspfD3JN365zYxMxcwdtBDPmBX8WhbFL/tUqeWLmWrh4H6PKvdwziy3jwzz4j58iBO/E6vxPa/A/iMe8U0Qa8nKfMc5+Dn721o8gw7PGdHHx6PgfYH+mtHn72JjVHf9dPyadPeFDiy6Eue/YRj1rm5CQPHXzlgHeUJ3sO7Mx7a6erzi3U2PTjGmoOOQc/+x0M8h7Sxgr3GRMYiWfOvaeQJ0/jmfqsv/zyy7tYsMMZy5qJEfyXMfQpRvjwrmE+MSA2cct45GEv408Z52BBXrv7BBzZXw112Rd35D7//POf11mHtEFc7Dm0tYtDOWjazHnKYN96yQeXzz777GfMVvitanBLbPjQb+ZnDFCxQtZeX8WWd9PO1i2x0VfENvuImFa8jPnqOcx+Y545aO8KRspCxVPcco+5NZv81N2dWXXBkUFsmYM2zZ9Y8ny6Pyk2kE1b+kKW+a6m09ZD16cPXJO3mVxTPJJYgUfw7Cn7kCCx5UFIO/LZS7DwCYCOfKilHeSMnTnF3Q32+SCnH2XRw65D/1lc926h+JoxYVMeOeIrB803ebnPHBvGNmNP2cQt+c6zYVd29AHGxrSS0x4UucTSvZnrrLlyz52u+i9zPsPFmqSOc3on7WfdqItnhRrmBwE9H6upo10oOjxWiA9bxKEveOxnv3F3XPnpY/aHfKm+WGe87qPvv+DKewxKnvxWfb+qBbGJgzrELm8XU55FZNDNnNU76w/loOgjzxDf7IOUfYw5ePgHzcpe9tbunph69tbksxYzc2Kdwz4Rg9xjbjzoT11lxc01FPn8lpzFkbrKytvVmdiQXfWYuuTHL8esgf52GKUuc3oGnat9ZpzTjucA/i7HW2LzLGk388ZOrmcs6p6dQ2xoB7x2vXcLRsSGLX7MVyPPae6nLjivhrrkyGC9GtYzc1zJwbNX6KXsP/nq7fBx/7Ho4QM3nZA8Hx2LyJwg+auQuc3KPh9A/jUAyh7J3XfMIkw7gg/fZkwZ9y24e6yNmQuHObHyy6G+NPeYE9+qgbK4U+fKGrs2nvKZQ87dhxKnOGBjjoxLDFZ5n31UsYMvxmxeeGJrPMaxyss96oAt4zHWqcN62tXGc6bmLT6swcg+WT3SOI/iCDbWHOrATn504VM/z+2qvujjlzOOPnOoA5/6NUZqps2Ucy61f81zUvNVnlimXfegGZf3U9rUnzYy9rRzy1ycsclv3hGej7RJnKu+PjuL6qWtlZ2Vz9RxLkbiIX+Vh3sPofjL38qW+YDrvCdW8tib8a/k4K1wyd7d6cHHBzGtxtwjB2o1z4q6qzjcg16tszrm4Dqpccizx6yDfOlZbMp5lrB/NMBsJ5N5IpdndWXzamzkZp7a8azj48zO1NWGdl3bn9jD7qzDVYy0N/tIvjhhbzfQJY7V8EyxRw7E7ZuNuOfY9caUYy2u7pkz66PaK/9Y9NIDFyBtMh27TgpgAJo85oAGOPcZZ0X00sB2gqgv9wGV2BysKTxxER9rxgTf5tSO+ubpvnzpju/+GSXv2biszWHmoz3iFAds5EBnVwf4KZ+NnvVDhpqmLDHNQ8Qaf8ZjHOjNvNzDj3bQdT51WE+72njONDEnf3Cnz6DUjz82wY1hD8yzaO1SDhs//PDDL2oK9vbaqr760B6x8cOWtUPPecaRedgnWTdjT55zbM7+wUfaX83VBycucvP3nEKJC/vZ7+rdSqmPPbrCb5U3cSM7x+7Dqhxx4ytH+haP3F/NrdUqNuRXeazs3MLTJzrUhp+DvGbs7M97YvYTOuRwdcx8sWeP2R87W2BiL6WMcSZPW9jOmJWZcciXorOrszJJ9Zc85sQMRg7it+9mDZQ5i005z+4qP2SIH9/UcDWMzXhShthWdq/Ghn6eJWPVF3h5btKv89SVByWmxNr+BFf7O+PWb/LS3pwT36rHiNXYp45r9sFnDmJIXebUBT4DrHJfHvwrAzwSE3SwjY/svSu2HiJz+sDNoLIgNqlN51qglGWfPde3BoveUdOxp21iZZ3D/TzE7Nt4xDcPmwcGuxZcO2mbuflO/izu3D9bp29lM4ecuw8lTnEQF/dXNt2Dmjfz3WFWHls2KhjMQ6Qt40k94hM3bChDHeA78EGeM27W6ij7NtDsKfOHB26zhxMPsfZyAn/nysEDV+xRk91Pv9APPvjgxaeffnr3v1rGPzweyjy0rX/aZz/ri0/8JA95+MjuYmA/x+4sKENeDvJePXDNnbhTXr1bKD6yVuS3Ox/aRX7WxL15FolPbJBhDV45WE+c0DG3tJGxYgM8iXfaXOWRPm+dW2djIv8dBvYJ+/OemL1mDisMVjGm/sxxYjP1kQevOYxXPjlaD6g5uw/NOJLvHJ1Zk6Mcd7GDnzhbA33sanAWm/raW+WnDBS5lc2MLeWdr3RWPOWTklueJWNVZtVb7kFTV75nhT5wzP4EC2J06PcMI+V3PXYl79nPO5vIEXeO2Vu73kgd5/Re9p/Yuz9ty39sevjAJUAOKgWZA77NSKFYCzjU4pHYPOzT1tEaO0dgsKcv7DDPeFcfM+QoqHahOeRPXvrJvemTvSxuyl6dT5seCvVXH/U8CBOX2WDaSZp5rw5zyjI3Rw957otV2pk5pDzzGbMYzIOFHLm+TQOM6WUGudvj1CD3xATMOJ+cPX+eT2TQ5z/z6GBtzeDhA9vWLPHGtucKHfWg1Cb9oKf/vAe0u+od91Iv5947xk6cPKzxyzD33HdOjKu+NQ4og7idq3uFztjQ0Xbqixm5Gk/u5zzPUPKdky8yDmxmveRbH9dHdNpEFptifKR73z188lsNMOJnb4gfsnlvpe4Zbspmv8qTntVm9gnyxHM0yCHjV/YoDmRmTXZ11l7GLm7JUy7prgZnsWlDP6v8lJFiE/zUOYsNvVWtr8YmftljxIl/xmrfWKGrfiLmGTcxZv7MsyfMN2XSz5zPHmOfOwX+2UAGfHKs7qMVb+a164207TxxWeVr7ZV/WfTwgUsQ+WFhblEo2G4PmdxbNeXVhGwOm3DqzWaiUMaIjnP0+PjYLAkwPJseumqc9MN/vjjlsTvHbI65f7YmbnPGFz7S5mxw9jKOjBdf4ph+sUsuDOaJ1eow5/+FMBhRYwe6xMQQY+bEZf1XMaivnjmYs/vaYJ1z9587BVPynrjYE/DFf4eFj1L30XHszgr706d1VMe+YU2Mq/Mz94jbixf9GQt2doM8lMcXPUPu2pt6+paig0/6Vz+ukWGwdj7tHa3RWw341gf/zsnD+UoP3uosTlnwNN6MXZyQB6ddfOx7F4iT2OiLuHcYK/MQSqwZb+JCrfDPgOY9IT91zUFMjuIip/SVsp4veNl3yuBbXehKRlkpMa3qcBSHurs6U6uZa8YONvP8azPprIF7V2JDVtwzPzCCL07T5lFsWVPmaXfacb2j6M+zREzaBEMxY25faW/qwgeXKcea/sQfP+Yps8JIHyuK7sRuxbP/0gZyxJhjxWMfHPSDDLHnMJ/k7ebgKJbIYM8zyzr7SbnEyX7O+ux8HfEPH7hHit0rAkXg1SDAxcK/tuZh5zLgo5+XRl6mzpHx0vLS+P7773/xuCMLLl0uOH5eODM79NnPS10dLzD8oj9j81Lnv7ZqZR875IK+sthY/ZSb8WFjyk9fxJkDbFKGHGfsKd/524sA/fUmDs4L5+ZNHMSW/5uiNzHGVUx5J6z230Sed/GbGNsuJu5fv087mYfw+8B9CHrVLQJvKAI8An3M8SDl0TY/0Pe9xPNfMrDJfw53/iuBj9Q3FJ6G9RYhMP/oyT8Kb4HhVT0i+eB7ZjP2XazIc95exbhPbPe9Z+6Tzy24Hdn37jySeaw97tCs8+4P+DN/3MOvqkeJJWNmPr8BZ/Gy/7Lj7QP3ShUqUwSKQBEoAkWgCBSBIvBkEOgD98mUqoEWgSJQBIpAESgCRaAIXEGgD9wrKFWmCBSBIlAEikARKAJF4Mkg0AfukylVAy0CRaAIFIEiUASKQBG4gkAfuFdQqkwRKAJFoAgUgSJQBIrAk0GgD9wnU6oGWgSKQBEoAkWgCBSBInAFgT5wr6BUmSJQBIpAESgCRaAIFIEng0AfuE+mVA20CBSBIlAEikARKAJF4AoCfeBeQakyRaAIFIEiUASKQBEoAk8GgT5wn0ypGmgRKAJFoAgUgSJQBIrAFQT6wL2CUmWKQBEoAkWgCBSBIlAEngwC/ws/kzEPfAP6WQAAAABJRU5ErkJggg==;" vertex="1" parent="1">
          <mxGeometry x="1651" y="48.77" width="606" height="281.23" as="geometry" />
        </mxCell>
      </root>
    </mxGraphModel>
  </diagram>
</mxfile>
